<?xml version="1.0" encoding="UTF-8" standalone="no"?>
<!-- Created with Inkscape (http://www.inkscape.org/) -->

<svg
   xmlns:dc="http://purl.org/dc/elements/1.1/"
   xmlns:cc="http://creativecommons.org/ns#"
   xmlns:rdf="http://www.w3.org/1999/02/22-rdf-syntax-ns#"
   xmlns:svg="http://www.w3.org/2000/svg"
   xmlns="http://www.w3.org/2000/svg"
   xmlns:sodipodi="http://sodipodi.sourceforge.net/DTD/sodipodi-0.dtd"
   xmlns:inkscape="http://www.inkscape.org/namespaces/inkscape"
   width="297mm"
   height="210mm"
   id="svg2862"
   version="1.1"
   inkscape:version="0.47 r22583"
   sodipodi:docname="dish7-ifr.svg"
   inkscape:export-filename="/home/oms/doc/Timba/Presentations/OMS/Generic/dish7.png"
   inkscape:export-xdpi="300"
   inkscape:export-ydpi="300">
  <defs
     id="defs2864">
    <inkscape:perspective
       sodipodi:type="inkscape:persp3d"
       inkscape:vp_x="0 : 372.04724 : 1"
       inkscape:vp_y="0 : 1000 : 0"
       inkscape:vp_z="1052.3622 : 372.04724 : 1"
       inkscape:persp3d-origin="526.18109 : 248.03149 : 1"
       id="perspective2871" />
    <inkscape:perspective
       id="perspective3005"
       inkscape:persp3d-origin="0.5 : 0.33333333 : 1"
       inkscape:vp_z="1 : 0.5 : 1"
       inkscape:vp_y="0 : 1000 : 0"
       inkscape:vp_x="0 : 0.5 : 1"
       sodipodi:type="inkscape:persp3d" />
  </defs>
  <sodipodi:namedview
     inkscape:document-units="mm"
     pagecolor="#ffffff"
     bordercolor="#666666"
     borderopacity="1.0"
     inkscape:pageopacity="0.0"
     inkscape:pageshadow="2"
     inkscape:zoom="1.7180397"
     inkscape:cx="502.92899"
     inkscape:cy="367.11892"
     inkscape:current-layer="layer1"
     id="namedview2866"
     showgrid="true"
     inkscape:window-width="1361"
     inkscape:window-height="872"
     inkscape:window-x="1673"
     inkscape:window-y="25"
     inkscape:window-maximized="0"
     inkscape:snap-grids="false">
    <inkscape:grid
       type="xygrid"
       id="grid2894" />
  </sodipodi:namedview>
  <metadata
     id="metadata2868">
    <rdf:RDF>
      <cc:Work
         rdf:about="">
        <dc:format>image/svg+xml</dc:format>
        <dc:type
           rdf:resource="http://purl.org/dc/dcmitype/StillImage" />
        <dc:title></dc:title>
      </cc:Work>
    </rdf:RDF>
  </metadata>
  <g
     inkscape:label="Layer 1"
     inkscape:groupmode="layer"
     id="layer1">
    <path
       style="fill:none;stroke:#008000;stroke-width:0.9241159;stroke-linecap:butt;stroke-linejoin:miter;stroke-miterlimit:4;stroke-opacity:1;stroke-dasharray:2.77234766, 0.92411589;stroke-dashoffset:0"
       d="m 659.60698,190.57953 -333.326,329.39576 0,0"
       id="path3689"
       sodipodi:nodetypes="ccc" />
    <path
       style="fill:none;stroke:#008000;stroke-width:0.93308491;stroke-linecap:butt;stroke-linejoin:miter;stroke-miterlimit:4;stroke-opacity:1;stroke-dasharray:2.7992547, 0.9330849;stroke-dashoffset:0"
       d="M 753.64831,278.24167 500.40602,527.05978"
       id="path3691"
       sodipodi:nodetypes="cc" />
    <path
       style="fill:#1a1a1a;stroke:#000000;stroke-width:3.25;stroke-linecap:butt;stroke-linejoin:miter;stroke-miterlimit:4;stroke-opacity:1;stroke-dasharray:none"
       d="m 700.20534,532.036 -460.66141,0"
       id="path3697" />
    <text
       xml:space="preserve"
       style="font-size:40px;font-style:normal;font-weight:normal;fill:#0000ff;fill-opacity:1;stroke:none;font-family:Bitstream Vera Sans"
       x="669.14642"
       y="588.0249"
       id="text4668"><tspan
         sodipodi:role="line"
         id="tspan4670"
         x="669.14642"
         y="588.0249">+</tspan></text>
    <path
       style="fill:none;stroke:#008000;stroke-width:1.625;stroke-linecap:butt;stroke-linejoin:miter;stroke-miterlimit:4;stroke-opacity:1;stroke-dasharray:none"
       d="m 307.28567,532.27268 0,0.57582 0,-1.15165"
       id="path4689"
       sodipodi:nodetypes="ccc" />
    <path
       style="fill:none;stroke:#008000;stroke-width:1px;stroke-linecap:butt;stroke-linejoin:miter;stroke-opacity:1"
       d="m 323.29377,523.40781 c -0.34336,0.68671 -1.28533,0.94197 -1.62869,1.62868 -0.12139,0.24279 0.1214,0.57155 0,0.81434 -0.17168,0.34336 -0.64266,0.47099 -0.81434,0.81434 -0.1214,0.24279 0.19194,0.6224 0,0.81435 -0.38388,0.38388 -1.2448,-0.38389 -1.62868,0 -2.1695,2.16949 2.16949,-0.54081 0,1.62868 -0.19195,0.19194 -0.6224,-0.19194 -0.81435,0 -0.19194,0.19194 0.19195,0.6224 0,0.81434 -0.19194,0.19194 -0.6224,-0.19194 -0.81434,0 -0.19194,0.19194 0.1214,0.57155 0,0.81434 -0.17168,0.34336 -0.64266,0.47099 -0.81434,0.81435 -0.24279,0.48558 0.24279,1.1431 0,1.62868 -0.17168,0.34336 -0.64266,0.47098 -0.81434,0.81434 -0.24279,0.48558 0.24279,1.14311 0,1.62869 -0.48861,0.97721 -1.95442,1.46581 -2.44303,2.44302 -0.17389,0.34779 0,3.74979 0,4.07171 0,0.43503 -0.11653,3.83864 0,4.07171 0.17168,0.34336 0.64267,0.47099 0.81434,0.81434 0.1214,0.24279 0,0.5429 0,0.81435 0,0.54289 -0.17167,1.11364 0,1.62868 0.24279,0.72837 1.3859,0.90031 1.62869,1.62868 0.17168,0.51504 -0.24279,1.14311 0,1.62869 0.12139,0.24279 0.6224,-0.19194 0.81434,0 0.19194,0.19194 -0.12139,0.57155 0,0.81434 0.17168,0.34336 0.54289,0.54289 0.81434,0.81434 0.27145,0.27145 0.47099,0.64266 0.81434,0.81434 0.24279,0.1214 0.57156,-0.12139 0.81435,0 0.68671,0.34336 0.94197,1.28533 1.62868,1.62869 0.24279,0.12139 0.57155,-0.1214 0.81434,0 0.68672,0.34335 0.94197,1.28532 1.62869,1.62868 0.48558,0.24279 1.1431,-0.24279 1.62868,0 0.34336,0.17168 0.47099,0.64266 0.81434,0.81434 0.24279,0.1214 0.57155,-0.12139 0.81434,0 0.34336,0.17168 0.47099,0.64267 0.81435,0.81435 0.24279,0.12139 0.57155,-0.1214 0.81434,0 0.34335,0.17167 0.47098,0.64266 0.81434,0.81434 0.24279,0.12139 0.54289,0 0.81434,0 0.81434,0 1.67047,0.25751 2.44303,0 0.36418,-0.1214 0.44192,-0.72124 0.81434,-0.81434 4.56912,-1.14229 0.33419,1.46158 4.88605,-0.81435 2.06887,-1.03443 -0.83398,-0.97328 2.44303,-1.62868 0.79853,-0.15971 1.62868,0 2.44302,0 1.90013,0 3.80027,0 5.7004,0 5.1575,0 10.315,0 15.47249,0 0.36675,0 2.1952,-0.12392 2.44303,0 0.34336,0.17168 0.47099,0.64266 0.81434,0.81434 1.12327,0.56164 0.72841,-0.98621 1.62869,0.81434 0.12139,0.24279 -0.1214,0.57156 0,0.81435 0.17168,0.34335 0.64266,0.47098 0.81434,0.81434 0.25591,0.51183 -0.25592,2.74553 0,3.25736 1.86346,3.72693 -0.33752,-3.45559 1.62868,2.44303 0.80806,2.42416 -1.92825,-1.67087 0.81434,2.44303 0.21295,0.31941 0.69295,0.45015 0.81435,0.81434 0,3.70712 -0.38389,0.0466 0.81434,2.44302 0.24279,0.48558 -0.38389,1.2448 0,1.62869 0.19194,0.19194 0.6224,-0.19194 0.81434,0 0.38389,0.38388 -0.24279,1.1431 0,1.62868 0.53192,1.06385 2.4389,1.49228 3.25737,1.62869 0.80326,0.13387 1.62868,0 2.44302,0 1.08579,0 2.17158,0 3.25737,0 3.52882,0 7.05763,0 10.58645,0 2.71447,0 5.42894,0 8.14342,0 1.35723,0 2.74679,0.29442 4.07171,0 1.18504,-0.26335 2.07966,-1.33426 3.25737,-1.62869 1.31671,-0.32918 2.71447,0 4.07171,0 0.54289,0 1.10199,0.13167 1.62868,0 1.31469,-0.32867 1.61523,-0.80089 2.44303,-1.62868 0.27144,-0.27145 0.47098,-0.64266 0.81434,-0.81434 0.65147,-0.32574 1.79155,0.32573 2.44302,0 3.72693,-1.86347 -3.45559,0.33752 2.44303,-1.62869 0.75961,-0.2532 3.31906,0.25089 4.07171,0 0.36418,-0.12139 0.45016,-0.69294 0.81434,-0.81434 0.44893,-0.14964 4.19496,0 4.88605,0 1.35724,0 2.71448,0 4.07171,0 0.27145,0 0.5429,0 0.81434,0 0.27145,0 0.57156,-0.12139 0.81435,0 0.34335,0.17168 0.47098,0.64266 0.81434,0.81434 0.24279,0.1214 0.54289,0 0.81434,0 0.5429,0.27145 1.12365,0.47766 1.62868,0.81434 0.31942,0.21295 0.5429,0.5429 0.81435,0.81435 0.27144,0.27144 0.64266,0.47098 0.81434,0.81434 0.12139,0.24279 -0.1214,0.57155 0,0.81434 0.10811,0.21622 2.22681,2.33492 2.44302,2.44303 0.48558,0.24279 1.14311,-0.24279 1.62869,0 0.34336,0.17167 0.47098,0.64266 0.81434,0.81434 0.29681,0.1484 3.60249,0 4.07171,0 1.90013,0 3.80026,0 5.70039,0 1.62869,0 3.27631,-0.24765 4.88606,0 1.95318,0.30049 3.7561,1.27518 5.70039,1.62868 1.06828,0.19423 2.17158,0 3.25737,0 1.08579,0 2.17158,0 3.25737,0 1.08579,0 2.17996,0.13468 3.25736,0 1.11057,-0.13882 2.17158,-0.54289 3.25737,-0.81434 1.08579,-0.27145 2.18123,-0.50687 3.25737,-0.81434 0.82536,-0.23582 1.59631,-0.67322 2.44303,-0.81434 0.80326,-0.13388 1.63686,0.11516 2.44302,0 3.41512,-0.48788 3.8644,-1.28814 7.32908,-2.44303 1.06177,-0.35392 2.20942,-0.42136 3.25737,-0.81434 1.13665,-0.42625 2.21641,-1.00411 3.25737,-1.62869 0.32917,-0.1975 0.45015,-0.69294 0.81434,-0.81434 0.77255,-0.25751 1.67047,0.25752 2.44302,0 0.57583,-0.19194 1.05286,-0.6224 1.62869,-0.81434 0.25751,-0.0858 0.6224,0.19194 0.81434,0 0.19194,-0.19194 -0.19194,-0.6224 0,-0.81434 0.19194,-0.19194 0.54289,0 0.81434,0 0.27145,0 0.57155,-0.1214 0.81434,0 0.34336,0.17168 0.45016,0.69295 0.81435,0.81434 0.51503,0.17168 1.08578,0 1.62868,0 0.81434,0 1.6445,-0.1597 2.44302,0 0.59519,0.11904 1.05286,0.6224 1.62869,0.81434 2.88411,0.96137 -2.69935,-2.27108 2.44302,0.81434 0.83925,0.50355 1.53431,1.2652 2.44303,1.62869 0.50407,0.20162 1.12462,-0.20163 1.62868,0 0.90872,0.36349 1.60379,1.12514 2.44303,1.62868 0.52048,0.31229 1.2645,0.32876 1.62868,0.81434 3.17379,4.23172 0.0954,1.10044 0.81435,3.25737 0.19194,0.57583 0.47765,1.12365 0.81434,1.62869 0.23011,0.34517 2.10609,2.27456 2.44302,2.44302 0.44814,0.22407 4.24941,-0.21221 4.88606,0 0.36418,0.1214 0.44192,0.72124 0.81434,0.81434 0.79003,0.19751 1.62868,0 2.44302,0 0.81435,0 1.62869,0 2.44303,0 1.35724,0 2.71447,0 4.07171,0 0.81434,0 1.63976,0.13388 2.44303,0 0.84671,-0.14111 1.59631,-0.67322 2.44302,-0.81434 0.80326,-0.13387 1.653,0.19751 2.44303,0 0.37242,-0.0931 0.45016,-0.69294 0.81434,-0.81434 0.51504,-0.17168 1.08579,0 1.62868,0 0.27145,0 0.57156,0.1214 0.81435,0 3.38909,-1.69455 -0.87056,0.0562 0.81434,-1.62868 0.42919,-0.4292 1.08579,-0.5429 1.62868,-0.81435 0.5429,-0.27144 1.05286,-0.6224 1.62869,-0.81434 0.65546,-0.21849 2.73698,0.26019 3.25736,0 0.34336,-0.17168 0.45016,-0.69294 0.81435,-0.81434 0.51503,-0.17168 1.10199,0.13167 1.62868,0 0.58885,-0.14721 1.05286,-0.6224 1.62868,-0.81434 0.25752,-0.0858 0.57156,0.12139 0.81435,0 0.34335,-0.17168 0.47098,-0.64267 0.81434,-0.81434 0.24279,-0.1214 0.55682,0.0858 0.81434,0 0.57583,-0.19195 1.05286,-0.6224 1.62868,-0.81435 0.77256,-0.25751 1.653,0.19751 2.44303,0 0.58885,-0.14721 1.05286,-0.6224 1.62868,-0.81434 0.51504,-0.17168 1.11365,0.17168 1.62869,0 1.15165,-0.38388 2.10571,-1.2448 3.25737,-1.62868 0.25751,-0.0858 0.54289,0 0.81434,0 0.81434,0 1.653,0.19751 2.44302,0 0.37243,-0.0931 0.47099,-0.64266 0.81435,-0.81434 0.24279,-0.1214 0.54289,0 0.81434,0 2.07507,0 1.0854,0.94987 2.44302,1.62868 0.24279,0.1214 0.6224,-0.19194 0.81435,0 1.97787,1.97788 -0.24216,1.1958 1.62868,2.44303 0.50503,0.33669 1.19949,0.38514 1.62868,0.81434 0.19195,0.19194 -0.19194,0.6224 0,0.81434 2.49604,2.49603 2.51765,0.86409 4.88605,2.44303 0.31942,0.21294 0.49494,0.6014 0.81435,0.81434 0.50503,0.33669 1.12365,0.47765 1.62868,0.81434 0.31941,0.21294 0.47099,0.64266 0.81434,0.81434 0.24279,0.1214 0.57155,-0.12139 0.81434,0 0.34336,0.17168 0.47099,0.64267 0.81435,0.81434 0.24783,0.12392 2.07628,0 2.44302,0 0.71797,0 1.74915,-0.17346 2.44303,0 0.83276,0.2082 1.6013,0.646 2.44302,0.81435 0.53236,0.10647 1.08579,0 1.62869,0 2.44302,0 4.88605,0 7.32908,0 1.08579,0 2.24923,0.40325 3.25736,0 0.56357,-0.22543 0.27145,-1.35724 0.81435,-1.62869 0.72837,-0.36418 1.68692,0.30244 2.44302,0 0.71286,-0.28514 0.94197,-1.28532 1.62869,-1.62868 0.48558,-0.24279 1.1431,0.24279 1.62868,0 0.24279,-0.1214 -0.24279,-0.69295 0,-0.81434 0.48558,-0.24279 1.11365,0.17167 1.62868,0 0.36419,-0.1214 0.45016,-0.69295 0.81435,-0.81435 0.004,-10e-4 2.44224,7.8e-4 2.44302,0 0.19194,-0.19194 -0.19194,-0.6224 0,-0.81434 0.40717,-0.40717 2.03586,0.40717 2.44303,0 0.19194,-0.19194 -0.19194,-0.6224 0,-0.81434 0.38388,-0.38388 1.11365,0.17168 1.62868,0 0.57583,-0.19194 1.05286,-0.6224 1.62869,-0.81434 0.25751,-0.0858 0.57155,0.12139 0.81434,0 0.34335,-0.17168 0.47098,-0.64267 0.81434,-0.81434 0.48558,-0.24279 1.1431,0.24279 1.62868,0 0.34336,-0.17168 0.47099,-0.64267 0.81435,-0.81435 0.36236,-0.18118 2.88489,0.12416 3.25736,0 0.36419,-0.12139 0.45016,-0.69294 0.81435,-0.81434 0.51503,-0.17168 1.11364,0.17168 1.62868,0 0.93542,-0.3118 1.12984,-1.94418 1.62868,-2.44302 0.19195,-0.19195 0.57156,0.12139 0.81435,0 0.34335,-0.17168 0.49493,-0.6014 0.81434,-0.81435 2.3357,-1.55713 2.55035,-0.0715 4.88605,-1.62868 0.31941,-0.21294 0.49493,-0.6014 0.81434,-0.81434 0.50503,-0.33669 1.08579,-0.5429 1.62869,-0.81434 2.42271,-1.21136 0.83465,-0.41733 3.25736,-1.62869 1.08579,-0.54289 2.10572,-1.2448 3.25737,-1.62868 0.44073,-0.14691 2.97994,0 3.25737,0 2.17158,0 4.34316,0 6.51473,0 0.38397,0 4.03481,-0.0369 4.07171,0 0.19195,0.19194 -0.19194,0.6224 0,0.81434 1.68491,1.6849 -0.0659,-2.57475 1.62869,0.81434 0.12139,0.24279 0,0.5429 0,0.81434 0,0.5429 -0.17168,1.11365 0,1.62869 0.24279,0.72837 1.28533,0.94197 1.62868,1.62868 0.12392,0.24783 0,2.07628 0,2.44303"
       id="path3712" />
    <path
       style="fill:none;stroke:#008000;stroke-width:1px;stroke-linecap:butt;stroke-linejoin:miter;stroke-opacity:1"
       d="m 500.82032,529.92254 c 0.3746,0.5341 -0.31248,3.44676 0,4.07171 0.17168,0.34336 0.64266,0.47099 0.81434,0.81434 0.24279,0.48558 -0.24279,1.14311 0,1.62869 0.17168,0.34335 0.64266,0.47098 0.81434,0.81434 0.1214,0.24279 0,0.54289 0,0.81434 0.27145,0.27145 0.64266,0.47099 0.81434,0.81434 0.1214,0.24279 -0.19194,0.6224 0,0.81435 0.19195,0.19194 0.6224,-0.19195 0.81435,0 0.19194,0.19194 -0.1214,0.57155 0,0.81434 0.17167,0.34335 0.54289,0.54289 0.81434,0.81434 0.27144,0.27145 0.47098,0.64266 0.81434,0.81434 0.24279,0.1214 0.6224,-0.19194 0.81434,0 0.19194,0.19194 -0.19194,0.6224 0,0.81434 0.19194,0.19195 0.57155,-0.12139 0.81434,0 0.34336,0.17168 0.49493,0.6014 0.81435,0.81435 0.50503,0.33668 1.08578,0.54289 1.62868,0.81434 0.54289,0.27144 1.05286,0.6224 1.62868,0.81434 0.73291,0.2443 1.71012,-0.2443 2.44303,0 0.36418,0.12139 0.47098,0.64266 0.81434,0.81434 0.24279,0.1214 0.57155,-0.12139 0.81434,0 0.34336,0.17168 0.45016,0.69295 0.81434,0.81434 0.51504,0.17168 1.102,-0.13167 1.62869,0 0.58885,0.14722 1.03983,0.66713 1.62868,0.81435 1.05337,0.26334 2.204,-0.26335 3.25737,0 0.58885,0.14721 1.03983,0.66712 1.62868,0.81434 0.52669,0.13167 1.08579,0 1.62869,0 1.35724,0 2.73294,0.22313 4.07171,0 1.19743,-0.19957 2.07966,-1.33426 3.25737,-1.62869 1.41389,-0.35347 3.47215,0.35348 4.88605,0 0.58885,-0.14721 1.05286,-0.6224 1.62868,-0.81434 0.51504,-0.17168 1.14311,0.24279 1.62869,0 0.34335,-0.17168 0.47098,-0.64266 0.81434,-0.81434 0.24279,-0.1214 0.54289,0 0.81434,0 0.48484,0 4.58056,-0.15275 4.88605,0 0.24279,0.12139 -0.19194,0.6224 0,0.81434 0.4292,0.4292 1.08579,0.5429 1.62869,0.81434 0.27144,0.5429 0.38514,1.19949 0.81434,1.62869 0.42919,0.42919 1.12365,0.47765 1.62868,0.81434 0.63882,0.42588 0.94197,1.28533 1.62869,1.62868 0.84137,0.42069 1.92495,-0.73986 2.44302,0.81435 0.21222,0.63664 -0.22406,4.43791 0,4.88605 0.17168,0.34335 0.47099,0.64266 0.81434,0.81434 0.24279,0.12139 0.5429,0 0.81435,0 1.35723,0 2.71447,0 4.07171,0 1.35723,0 2.71447,0 4.07171,0 0.81434,0 1.63976,0.13388 2.44302,0 0.84671,-0.14112 1.60131,-0.646 2.44303,-0.81434 0.53235,-0.10647 1.08579,0 1.62868,0 1.08579,0 2.17158,0 3.25737,0 0.54289,0 1.11365,0.17168 1.62868,0 0.36419,-0.1214 0.47099,-0.64267 0.81435,-0.81434 0.24279,-0.1214 0.57155,0.12139 0.81434,0 0.34335,-0.17168 0.47098,-0.64267 0.81434,-0.81435 0.24279,-0.12139 0.57155,0.1214 0.81434,0 0.34336,-0.17168 0.47099,-0.64266 0.81434,-0.81434 0.24279,-0.12139 0.6224,0.19194 0.81435,0 0.19194,-0.19194 -0.19195,-0.6224 0,-0.81434 0.38388,-0.38389 1.24479,0.38388 1.62868,0 0.19194,-0.19194 0,-0.5429 0,-0.81434 0.54289,0 1.11365,0.17168 1.62868,0 0.36419,-0.1214 0.47099,-0.64267 0.81435,-0.81434 0.0674,-0.0337 2.33824,-0.0349 2.44302,0 3.28115,1.09371 0.32694,1.38498 2.44303,2.44302 0.24279,0.1214 0.57155,-0.12139 0.81434,0 0.34336,0.17168 0.54289,0.5429 0.81434,0.81434 0.5429,0.5429 1.2028,0.98986 1.62869,1.62869 1.15325,1.72987 -1.82289,-0.12947 0.81434,1.62868 0.50503,0.33669 1.29199,0.30931 1.62868,0.81434 0.30114,0.45172 -0.17168,1.11365 0,1.62869 0.54017,1.6205 0.76005,0.38002 1.62868,0.81434 0.68672,0.34336 0.94198,1.28533 1.62869,1.62868 0.24783,0.12392 2.07628,0 2.44302,0 0.84686,0 4.24548,0.16015 4.88606,0 1.1777,-0.29442 2.10571,-1.2448 3.25736,-1.62868 0.25752,-0.0858 0.55683,0.0858 0.81435,0 0.57582,-0.19194 1.05285,-0.6224 1.62868,-0.81434 0.25752,-0.0858 0.57155,0.12139 0.81434,0 0.34336,-0.17168 0.5429,-0.5429 0.81434,-0.81434 0.8278,-0.8278 1.12834,-1.30002 2.44303,-1.62869 0.52669,-0.13167 1.102,0.13167 1.62868,0 0.58886,-0.14721 1.05286,-0.6224 1.62869,-0.81434 0.25752,-0.0858 0.57155,0.12139 0.81434,0 0.34336,-0.17168 0.47099,-0.64266 0.81434,-0.81434 0.24279,-0.1214 0.57155,0.12139 0.81434,0 0.34336,-0.17168 0.47099,-0.64267 0.81435,-0.81434 0.48558,-0.24279 1.11365,0.17167 1.62868,0 0.57583,-0.19195 1.05286,-0.6224 1.62868,-0.81435 0.65547,-0.21848 2.73699,0.26019 3.25737,0 0.34336,-0.17168 0.47099,-0.64266 0.81434,-0.81434 0.0675,-0.0337 2.33825,-0.0349 2.44303,0 0.57583,0.19194 1.05286,0.6224 1.62868,0.81434 0.25752,0.0858 0.5429,0 0.81435,0 0.81434,0.27145 1.67525,0.43046 2.44302,0.81435 0.68672,0.34335 0.94197,1.28532 1.62869,1.62868 0.48558,0.24279 1.11364,-0.17168 1.62868,0 0.57583,0.19194 1.05286,0.6224 1.62868,0.81434 0.25752,0.0858 0.57156,-0.12139 0.81435,0 0.34335,0.17168 0.47098,0.64266 0.81434,0.81434 0.34779,0.1739 3.74979,0 4.07171,0 0.42583,0 3.04324,0.10707 3.25737,0 0.34335,-0.17168 0.47098,-0.64266 0.81434,-0.81434 0.24279,-0.12139 0.54289,0 0.81434,0 0.27145,0 0.54289,0 0.81434,0 0.946,0 3.33347,0.18456 4.07171,0 0.58885,-0.14721 1.05286,-0.6224 1.62869,-0.81434 0.24183,-0.0806 3.90456,-0.0836 4.07171,0 0.34335,0.17168 0.45015,0.69295 0.81434,0.81434 0.77255,0.25752 1.62868,0 2.44302,0 1.62869,0 3.25737,0 4.88606,0 0.5664,0 3.77721,-0.14725 4.0717,0 0.34336,0.17168 0.47099,0.64266 0.81435,0.81434 0.44177,0.22089 3.03454,-0.22282 3.25736,0 0.19195,0.19195 -0.19194,0.6224 0,0.81435 0.19195,0.19194 0.57156,-0.1214 0.81435,0 0.68671,0.34335 0.94197,1.28532 1.62868,1.62868 0.24279,0.12139 0.6224,-0.19194 0.81434,0 0.19194,0.19194 -0.19194,0.6224 0,0.81434 0.19194,0.19194 0.6224,-0.19194 0.81434,0 0.38389,0.38389 -0.24279,1.14311 0,1.62868 0.17168,0.34336 0.64267,0.47099 0.81435,0.81435 0.10706,0.21412 0,2.83153 0,3.25736 0,2.17158 0,4.34316 0,6.51474"
       id="path3714" />
    <g
       id="g3815"
       transform="translate(157.98234,95.278013)">
      <path
         transform="matrix(0.07502854,-0.04104663,0.02293852,0.13425748,132.263,358.89638)"
         d="m 309.96851,683.07872 -107.43783,-33.64003 82.85203,-76.22387 24.5858,109.8639 z"
         inkscape:randomized="0"
         inkscape:rounded="0"
         inkscape:flatsided="true"
         sodipodi:arg2="1.8742383"
         sodipodi:arg1="0.82704074"
         sodipodi:r2="52.585148"
         sodipodi:r1="64.998817"
         sodipodi:cy="635.24408"
         sodipodi:cx="265.96063"
         sodipodi:sides="3"
         id="path2838"
         style="fill:none;stroke:#0000ff;stroke-width:9.55373955;stroke-linecap:butt;stroke-linejoin:miter;stroke-miterlimit:4;stroke-opacity:1;stroke-dasharray:none"
         sodipodi:type="star" />
      <path
         transform="matrix(-0.07740089,-0.08289747,-0.04353581,0.07464723,210.42553,411.69104)"
         d="m 394.15746,468.77951 c 0,49.66649 -49.25748,89.92913 -110.01967,89.92913 -60.76219,0 -110.01968,-40.26264 -110.01968,-89.92913 0,-49.66649 49.25749,-89.92913 110.01968,-89.92913 60.76219,0 110.01967,40.26264 110.01967,89.92913 z"
         sodipodi:ry="89.929131"
         sodipodi:rx="110.01968"
         sodipodi:cy="468.77951"
         sodipodi:cx="284.13779"
         id="path2828"
         style="fill:#008000;fill-rule:evenodd;stroke:#0000ff;stroke-width:10.34907341;stroke-linecap:butt;stroke-linejoin:miter;stroke-miterlimit:4;stroke-opacity:1;stroke-dasharray:none"
         sodipodi:type="arc" />
      <path
         transform="matrix(-0.07738637,-0.08288191,-0.04734417,0.0811771,212.105,409.18947)"
         d="m 392.24408,454.42914 c 0,39.62752 -47.97251,71.75197 -107.1496,71.75197 -59.17709,0 -107.14959,-32.12445 -107.14959,-71.75197 0,-39.62752 47.9725,-71.75197 107.14959,-71.75197 59.17709,0 107.1496,32.12445 107.1496,71.75197 z"
         sodipodi:ry="71.751968"
         sodipodi:rx="107.1496"
         sodipodi:cy="454.42914"
         sodipodi:cx="285.09448"
         id="path2830"
         style="fill:#f9f9f9;fill-rule:evenodd;stroke:#0000ff;stroke-width:9.9250412;stroke-linecap:butt;stroke-linejoin:miter;stroke-miterlimit:4;stroke-opacity:1;stroke-dasharray:none"
         sodipodi:type="arc" />
      <path
         id="path3656"
         d="m 176.66999,417.00377 -9.64792,-4.21888"
         style="fill:none;stroke:#0000ff;stroke-width:1.00267363;stroke-linecap:butt;stroke-linejoin:miter;stroke-miterlimit:4;stroke-opacity:1;stroke-dasharray:none" />
      <path
         id="path3658"
         d="M 170.07858,432.06975 176.4255,417.0793"
         style="fill:none;stroke:#0000ff;stroke-width:1.00267363;stroke-linecap:butt;stroke-linejoin:miter;stroke-miterlimit:4;stroke-opacity:1;stroke-dasharray:none" />
      <path
         id="path3660"
         d="m 177.15547,425.94725 -0.59626,-9.17126"
         style="fill:none;stroke:#0000ff;stroke-width:1.00267363;stroke-linecap:butt;stroke-linejoin:miter;stroke-miterlimit:4;stroke-opacity:1;stroke-dasharray:none" />
      <path
         id="path3662"
         d="m 159.40767,419.0457 17.02739,-2.09505"
         style="fill:none;stroke:#0000ff;stroke-width:1.00267363;stroke-linecap:butt;stroke-linejoin:miter;stroke-miterlimit:4;stroke-opacity:1;stroke-dasharray:none" />
    </g>
    <g
       transform="translate(121.33695,95.278013)"
       id="g3824">
      <path
         sodipodi:type="star"
         style="fill:none;stroke:#0000ff;stroke-width:9.55373955;stroke-linecap:butt;stroke-linejoin:miter;stroke-miterlimit:4;stroke-opacity:1;stroke-dasharray:none"
         id="path3826"
         sodipodi:sides="3"
         sodipodi:cx="265.96063"
         sodipodi:cy="635.24408"
         sodipodi:r1="64.998817"
         sodipodi:r2="52.585148"
         sodipodi:arg1="0.82704074"
         sodipodi:arg2="1.8742383"
         inkscape:flatsided="true"
         inkscape:rounded="0"
         inkscape:randomized="0"
         d="m 309.96851,683.07872 -107.43783,-33.64003 82.85203,-76.22387 24.5858,109.8639 z"
         transform="matrix(0.07502854,-0.04104663,0.02293852,0.13425748,132.263,358.89638)" />
      <path
         sodipodi:type="arc"
         style="fill:#008000;fill-rule:evenodd;stroke:#0000ff;stroke-width:10.34907341;stroke-linecap:butt;stroke-linejoin:miter;stroke-miterlimit:4;stroke-opacity:1;stroke-dasharray:none"
         id="path3828"
         sodipodi:cx="284.13779"
         sodipodi:cy="468.77951"
         sodipodi:rx="110.01968"
         sodipodi:ry="89.929131"
         d="m 394.15746,468.77951 c 0,49.66649 -49.25748,89.92913 -110.01967,89.92913 -60.76219,0 -110.01968,-40.26264 -110.01968,-89.92913 0,-49.66649 49.25749,-89.92913 110.01968,-89.92913 60.76219,0 110.01967,40.26264 110.01967,89.92913 z"
         transform="matrix(-0.07740089,-0.08289747,-0.04353581,0.07464723,210.42553,411.69104)" />
      <path
         sodipodi:type="arc"
         style="fill:#f9f9f9;fill-rule:evenodd;stroke:#0000ff;stroke-width:9.9250412;stroke-linecap:butt;stroke-linejoin:miter;stroke-miterlimit:4;stroke-opacity:1;stroke-dasharray:none"
         id="path3830"
         sodipodi:cx="285.09448"
         sodipodi:cy="454.42914"
         sodipodi:rx="107.1496"
         sodipodi:ry="71.751968"
         d="m 392.24408,454.42914 c 0,39.62752 -47.97251,71.75197 -107.1496,71.75197 -59.17709,0 -107.14959,-32.12445 -107.14959,-71.75197 0,-39.62752 47.9725,-71.75197 107.14959,-71.75197 59.17709,0 107.1496,32.12445 107.1496,71.75197 z"
         transform="matrix(-0.07738637,-0.08288191,-0.04734417,0.0811771,212.105,409.18947)" />
      <path
         style="fill:none;stroke:#0000ff;stroke-width:1.00267363;stroke-linecap:butt;stroke-linejoin:miter;stroke-miterlimit:4;stroke-opacity:1;stroke-dasharray:none"
         d="m 176.66999,417.00377 -9.64792,-4.21888"
         id="path3832" />
      <path
         style="fill:none;stroke:#0000ff;stroke-width:1.00267363;stroke-linecap:butt;stroke-linejoin:miter;stroke-miterlimit:4;stroke-opacity:1;stroke-dasharray:none"
         d="M 170.07858,432.06975 176.4255,417.0793"
         id="path3834" />
      <path
         style="fill:none;stroke:#0000ff;stroke-width:1.00267363;stroke-linecap:butt;stroke-linejoin:miter;stroke-miterlimit:4;stroke-opacity:1;stroke-dasharray:none"
         d="m 177.15547,425.94725 -0.59626,-9.17126"
         id="path3836" />
      <path
         style="fill:none;stroke:#0000ff;stroke-width:1.00267363;stroke-linecap:butt;stroke-linejoin:miter;stroke-miterlimit:4;stroke-opacity:1;stroke-dasharray:none"
         d="m 159.40767,419.0457 17.02739,-2.09505"
         id="path3838" />
    </g>
    <g
       id="g3840"
       transform="translate(219.87234,95.278013)">
      <path
         transform="matrix(0.07502854,-0.04104663,0.02293852,0.13425748,132.263,358.89638)"
         d="m 309.96851,683.07872 -107.43783,-33.64003 82.85203,-76.22387 24.5858,109.8639 z"
         inkscape:randomized="0"
         inkscape:rounded="0"
         inkscape:flatsided="true"
         sodipodi:arg2="1.8742383"
         sodipodi:arg1="0.82704074"
         sodipodi:r2="52.585148"
         sodipodi:r1="64.998817"
         sodipodi:cy="635.24408"
         sodipodi:cx="265.96063"
         sodipodi:sides="3"
         id="path3842"
         style="fill:none;stroke:#0000ff;stroke-width:9.55373955;stroke-linecap:butt;stroke-linejoin:miter;stroke-miterlimit:4;stroke-opacity:1;stroke-dasharray:none"
         sodipodi:type="star" />
      <path
         transform="matrix(-0.07740089,-0.08289747,-0.04353581,0.07464723,210.42553,411.69104)"
         d="m 394.15746,468.77951 c 0,49.66649 -49.25748,89.92913 -110.01967,89.92913 -60.76219,0 -110.01968,-40.26264 -110.01968,-89.92913 0,-49.66649 49.25749,-89.92913 110.01968,-89.92913 60.76219,0 110.01967,40.26264 110.01967,89.92913 z"
         sodipodi:ry="89.929131"
         sodipodi:rx="110.01968"
         sodipodi:cy="468.77951"
         sodipodi:cx="284.13779"
         id="path3844"
         style="fill:#008000;fill-rule:evenodd;stroke:#0000ff;stroke-width:10.34907341;stroke-linecap:butt;stroke-linejoin:miter;stroke-miterlimit:4;stroke-opacity:1;stroke-dasharray:none"
         sodipodi:type="arc" />
      <path
         transform="matrix(-0.07738637,-0.08288191,-0.04734417,0.0811771,212.105,409.18947)"
         d="m 392.24408,454.42914 c 0,39.62752 -47.97251,71.75197 -107.1496,71.75197 -59.17709,0 -107.14959,-32.12445 -107.14959,-71.75197 0,-39.62752 47.9725,-71.75197 107.14959,-71.75197 59.17709,0 107.1496,32.12445 107.1496,71.75197 z"
         sodipodi:ry="71.751968"
         sodipodi:rx="107.1496"
         sodipodi:cy="454.42914"
         sodipodi:cx="285.09448"
         id="path3846"
         style="fill:#f9f9f9;fill-rule:evenodd;stroke:#0000ff;stroke-width:9.9250412;stroke-linecap:butt;stroke-linejoin:miter;stroke-miterlimit:4;stroke-opacity:1;stroke-dasharray:none"
         sodipodi:type="arc" />
      <path
         id="path3848"
         d="m 176.66999,417.00377 -9.64792,-4.21888"
         style="fill:none;stroke:#0000ff;stroke-width:1.00267363;stroke-linecap:butt;stroke-linejoin:miter;stroke-miterlimit:4;stroke-opacity:1;stroke-dasharray:none" />
      <path
         id="path3850"
         d="M 170.07858,432.06975 176.4255,417.0793"
         style="fill:none;stroke:#0000ff;stroke-width:1.00267363;stroke-linecap:butt;stroke-linejoin:miter;stroke-miterlimit:4;stroke-opacity:1;stroke-dasharray:none" />
      <path
         id="path3852"
         d="m 177.15547,425.94725 -0.59626,-9.17126"
         style="fill:none;stroke:#0000ff;stroke-width:1.00267363;stroke-linecap:butt;stroke-linejoin:miter;stroke-miterlimit:4;stroke-opacity:1;stroke-dasharray:none" />
      <path
         id="path3854"
         d="m 159.40767,419.0457 17.02739,-2.09505"
         style="fill:none;stroke:#0000ff;stroke-width:1.00267363;stroke-linecap:butt;stroke-linejoin:miter;stroke-miterlimit:4;stroke-opacity:1;stroke-dasharray:none" />
    </g>
    <g
       transform="translate(333.88021,95.278013)"
       id="g3856">
      <path
         sodipodi:type="star"
         style="fill:none;stroke:#0000ff;stroke-width:9.55373955;stroke-linecap:butt;stroke-linejoin:miter;stroke-miterlimit:4;stroke-opacity:1;stroke-dasharray:none"
         id="path3858"
         sodipodi:sides="3"
         sodipodi:cx="265.96063"
         sodipodi:cy="635.24408"
         sodipodi:r1="64.998817"
         sodipodi:r2="52.585148"
         sodipodi:arg1="0.82704074"
         sodipodi:arg2="1.8742383"
         inkscape:flatsided="true"
         inkscape:rounded="0"
         inkscape:randomized="0"
         d="m 309.96851,683.07872 -107.43783,-33.64003 82.85203,-76.22387 24.5858,109.8639 z"
         transform="matrix(0.07502854,-0.04104663,0.02293852,0.13425748,132.263,358.89638)" />
      <path
         sodipodi:type="arc"
         style="fill:#008000;fill-rule:evenodd;stroke:#0000ff;stroke-width:10.34907341;stroke-linecap:butt;stroke-linejoin:miter;stroke-miterlimit:4;stroke-opacity:1;stroke-dasharray:none"
         id="path3860"
         sodipodi:cx="284.13779"
         sodipodi:cy="468.77951"
         sodipodi:rx="110.01968"
         sodipodi:ry="89.929131"
         d="m 394.15746,468.77951 c 0,49.66649 -49.25748,89.92913 -110.01967,89.92913 -60.76219,0 -110.01968,-40.26264 -110.01968,-89.92913 0,-49.66649 49.25749,-89.92913 110.01968,-89.92913 60.76219,0 110.01967,40.26264 110.01967,89.92913 z"
         transform="matrix(-0.07740089,-0.08289747,-0.04353581,0.07464723,210.42553,411.69104)" />
      <path
         sodipodi:type="arc"
         style="fill:#f9f9f9;fill-rule:evenodd;stroke:#0000ff;stroke-width:9.9250412;stroke-linecap:butt;stroke-linejoin:miter;stroke-miterlimit:4;stroke-opacity:1;stroke-dasharray:none"
         id="path3862"
         sodipodi:cx="285.09448"
         sodipodi:cy="454.42914"
         sodipodi:rx="107.1496"
         sodipodi:ry="71.751968"
         d="m 392.24408,454.42914 c 0,39.62752 -47.97251,71.75197 -107.1496,71.75197 -59.17709,0 -107.14959,-32.12445 -107.14959,-71.75197 0,-39.62752 47.9725,-71.75197 107.14959,-71.75197 59.17709,0 107.1496,32.12445 107.1496,71.75197 z"
         transform="matrix(-0.07738637,-0.08288191,-0.04734417,0.0811771,212.105,409.18947)" />
      <path
         style="fill:none;stroke:#0000ff;stroke-width:1.00267363;stroke-linecap:butt;stroke-linejoin:miter;stroke-miterlimit:4;stroke-opacity:1;stroke-dasharray:none"
         d="m 176.66999,417.00377 -9.64792,-4.21888"
         id="path3864" />
      <path
         style="fill:none;stroke:#0000ff;stroke-width:1.00267363;stroke-linecap:butt;stroke-linejoin:miter;stroke-miterlimit:4;stroke-opacity:1;stroke-dasharray:none"
         d="M 170.07858,432.06975 176.4255,417.0793"
         id="path3866" />
      <path
         style="fill:none;stroke:#0000ff;stroke-width:1.00267363;stroke-linecap:butt;stroke-linejoin:miter;stroke-miterlimit:4;stroke-opacity:1;stroke-dasharray:none"
         d="m 177.15547,425.94725 -0.59626,-9.17126"
         id="path3868" />
      <path
         style="fill:none;stroke:#0000ff;stroke-width:1.00267363;stroke-linecap:butt;stroke-linejoin:miter;stroke-miterlimit:4;stroke-opacity:1;stroke-dasharray:none"
         d="m 159.40767,419.0457 17.02739,-2.09505"
         id="path3870" />
    </g>
    <g
       id="g3872"
       transform="translate(92.020645,95.278013)">
      <path
         transform="matrix(0.07502854,-0.04104663,0.02293852,0.13425748,132.263,358.89638)"
         d="m 309.96851,683.07872 -107.43783,-33.64003 82.85203,-76.22387 24.5858,109.8639 z"
         inkscape:randomized="0"
         inkscape:rounded="0"
         inkscape:flatsided="true"
         sodipodi:arg2="1.8742383"
         sodipodi:arg1="0.82704074"
         sodipodi:r2="52.585148"
         sodipodi:r1="64.998817"
         sodipodi:cy="635.24408"
         sodipodi:cx="265.96063"
         sodipodi:sides="3"
         id="path3874"
         style="fill:none;stroke:#0000ff;stroke-width:9.55373955;stroke-linecap:butt;stroke-linejoin:miter;stroke-miterlimit:4;stroke-opacity:1;stroke-dasharray:none"
         sodipodi:type="star" />
      <path
         transform="matrix(-0.07740089,-0.08289747,-0.04353581,0.07464723,210.42553,411.69104)"
         d="m 394.15746,468.77951 c 0,49.66649 -49.25748,89.92913 -110.01967,89.92913 -60.76219,0 -110.01968,-40.26264 -110.01968,-89.92913 0,-49.66649 49.25749,-89.92913 110.01968,-89.92913 60.76219,0 110.01967,40.26264 110.01967,89.92913 z"
         sodipodi:ry="89.929131"
         sodipodi:rx="110.01968"
         sodipodi:cy="468.77951"
         sodipodi:cx="284.13779"
         id="path3876"
         style="fill:#008000;fill-rule:evenodd;stroke:#0000ff;stroke-width:10.34907341;stroke-linecap:butt;stroke-linejoin:miter;stroke-miterlimit:4;stroke-opacity:1;stroke-dasharray:none"
         sodipodi:type="arc" />
      <path
         transform="matrix(-0.07738637,-0.08288191,-0.04734417,0.0811771,212.105,409.18947)"
         d="m 392.24408,454.42914 c 0,39.62752 -47.97251,71.75197 -107.1496,71.75197 -59.17709,0 -107.14959,-32.12445 -107.14959,-71.75197 0,-39.62752 47.9725,-71.75197 107.14959,-71.75197 59.17709,0 107.1496,32.12445 107.1496,71.75197 z"
         sodipodi:ry="71.751968"
         sodipodi:rx="107.1496"
         sodipodi:cy="454.42914"
         sodipodi:cx="285.09448"
         id="path3878"
         style="fill:#f9f9f9;fill-rule:evenodd;stroke:#0000ff;stroke-width:9.9250412;stroke-linecap:butt;stroke-linejoin:miter;stroke-miterlimit:4;stroke-opacity:1;stroke-dasharray:none"
         sodipodi:type="arc" />
      <path
         id="path3880"
         d="m 176.66999,417.00377 -9.64792,-4.21888"
         style="fill:none;stroke:#0000ff;stroke-width:1.00267363;stroke-linecap:butt;stroke-linejoin:miter;stroke-miterlimit:4;stroke-opacity:1;stroke-dasharray:none" />
      <path
         id="path3882"
         d="M 170.07858,432.06975 176.4255,417.0793"
         style="fill:none;stroke:#0000ff;stroke-width:1.00267363;stroke-linecap:butt;stroke-linejoin:miter;stroke-miterlimit:4;stroke-opacity:1;stroke-dasharray:none" />
      <path
         id="path3884"
         d="m 177.15547,425.94725 -0.59626,-9.17126"
         style="fill:none;stroke:#0000ff;stroke-width:1.00267363;stroke-linecap:butt;stroke-linejoin:miter;stroke-miterlimit:4;stroke-opacity:1;stroke-dasharray:none" />
      <path
         id="path3886"
         d="m 159.40767,419.0457 17.02739,-2.09505"
         style="fill:none;stroke:#0000ff;stroke-width:1.00267363;stroke-linecap:butt;stroke-linejoin:miter;stroke-miterlimit:4;stroke-opacity:1;stroke-dasharray:none" />
    </g>
    <g
       id="g3888"
       transform="translate(272.80456,95.278013)">
      <path
         transform="matrix(0.07502854,-0.04104663,0.02293852,0.13425748,132.263,358.89638)"
         d="m 309.96851,683.07872 -107.43783,-33.64003 82.85203,-76.22387 24.5858,109.8639 z"
         inkscape:randomized="0"
         inkscape:rounded="0"
         inkscape:flatsided="true"
         sodipodi:arg2="1.8742383"
         sodipodi:arg1="0.82704074"
         sodipodi:r2="52.585148"
         sodipodi:r1="64.998817"
         sodipodi:cy="635.24408"
         sodipodi:cx="265.96063"
         sodipodi:sides="3"
         id="path3890"
         style="fill:none;stroke:#0000ff;stroke-width:9.55373955;stroke-linecap:butt;stroke-linejoin:miter;stroke-miterlimit:4;stroke-opacity:1;stroke-dasharray:none"
         sodipodi:type="star" />
      <path
         transform="matrix(-0.07740089,-0.08289747,-0.04353581,0.07464723,210.42553,411.69104)"
         d="m 394.15746,468.77951 c 0,49.66649 -49.25748,89.92913 -110.01967,89.92913 -60.76219,0 -110.01968,-40.26264 -110.01968,-89.92913 0,-49.66649 49.25749,-89.92913 110.01968,-89.92913 60.76219,0 110.01967,40.26264 110.01967,89.92913 z"
         sodipodi:ry="89.929131"
         sodipodi:rx="110.01968"
         sodipodi:cy="468.77951"
         sodipodi:cx="284.13779"
         id="path3892"
         style="fill:#008000;fill-rule:evenodd;stroke:#0000ff;stroke-width:10.34907341;stroke-linecap:butt;stroke-linejoin:miter;stroke-miterlimit:4;stroke-opacity:1;stroke-dasharray:none"
         sodipodi:type="arc" />
      <path
         transform="matrix(-0.07738637,-0.08288191,-0.04734417,0.0811771,212.105,409.18947)"
         d="m 392.24408,454.42914 c 0,39.62752 -47.97251,71.75197 -107.1496,71.75197 -59.17709,0 -107.14959,-32.12445 -107.14959,-71.75197 0,-39.62752 47.9725,-71.75197 107.14959,-71.75197 59.17709,0 107.1496,32.12445 107.1496,71.75197 z"
         sodipodi:ry="71.751968"
         sodipodi:rx="107.1496"
         sodipodi:cy="454.42914"
         sodipodi:cx="285.09448"
         id="path3894"
         style="fill:#f9f9f9;fill-rule:evenodd;stroke:#0000ff;stroke-width:9.9250412;stroke-linecap:butt;stroke-linejoin:miter;stroke-miterlimit:4;stroke-opacity:1;stroke-dasharray:none"
         sodipodi:type="arc" />
      <path
         id="path3896"
         d="m 176.66999,417.00377 -9.64792,-4.21888"
         style="fill:none;stroke:#0000ff;stroke-width:1.00267363;stroke-linecap:butt;stroke-linejoin:miter;stroke-miterlimit:4;stroke-opacity:1;stroke-dasharray:none" />
      <path
         id="path3898"
         d="M 170.07858,432.06975 176.4255,417.0793"
         style="fill:none;stroke:#0000ff;stroke-width:1.00267363;stroke-linecap:butt;stroke-linejoin:miter;stroke-miterlimit:4;stroke-opacity:1;stroke-dasharray:none" />
      <path
         id="path3900"
         d="m 177.15547,425.94725 -0.59626,-9.17126"
         style="fill:none;stroke:#0000ff;stroke-width:1.00267363;stroke-linecap:butt;stroke-linejoin:miter;stroke-miterlimit:4;stroke-opacity:1;stroke-dasharray:none" />
      <path
         id="path3902"
         d="m 159.40767,419.0457 17.02739,-2.09505"
         style="fill:none;stroke:#0000ff;stroke-width:1.00267363;stroke-linecap:butt;stroke-linejoin:miter;stroke-miterlimit:4;stroke-opacity:1;stroke-dasharray:none" />
    </g>
    <g
       id="g3904"
       transform="translate(422.35314,95.278013)">
      <path
         transform="matrix(0.07502854,-0.04104663,0.02293852,0.13425748,132.263,358.89638)"
         d="m 309.96851,683.07872 -107.43783,-33.64003 82.85203,-76.22387 24.5858,109.8639 z"
         inkscape:randomized="0"
         inkscape:rounded="0"
         inkscape:flatsided="true"
         sodipodi:arg2="1.8742383"
         sodipodi:arg1="0.82704074"
         sodipodi:r2="52.585148"
         sodipodi:r1="64.998817"
         sodipodi:cy="635.24408"
         sodipodi:cx="265.96063"
         sodipodi:sides="3"
         id="path3906"
         style="fill:none;stroke:#0000ff;stroke-width:9.55373955;stroke-linecap:butt;stroke-linejoin:miter;stroke-miterlimit:4;stroke-opacity:1;stroke-dasharray:none"
         sodipodi:type="star" />
      <path
         transform="matrix(-0.07740089,-0.08289747,-0.04353581,0.07464723,210.42553,411.69104)"
         d="m 394.15746,468.77951 c 0,49.66649 -49.25748,89.92913 -110.01967,89.92913 -60.76219,0 -110.01968,-40.26264 -110.01968,-89.92913 0,-49.66649 49.25749,-89.92913 110.01968,-89.92913 60.76219,0 110.01967,40.26264 110.01967,89.92913 z"
         sodipodi:ry="89.929131"
         sodipodi:rx="110.01968"
         sodipodi:cy="468.77951"
         sodipodi:cx="284.13779"
         id="path3908"
         style="fill:#008000;fill-rule:evenodd;stroke:#0000ff;stroke-width:10.34907341;stroke-linecap:butt;stroke-linejoin:miter;stroke-miterlimit:4;stroke-opacity:1;stroke-dasharray:none"
         sodipodi:type="arc" />
      <path
         transform="matrix(-0.07738637,-0.08288191,-0.04734417,0.0811771,212.105,409.18947)"
         d="m 392.24408,454.42914 c 0,39.62752 -47.97251,71.75197 -107.1496,71.75197 -59.17709,0 -107.14959,-32.12445 -107.14959,-71.75197 0,-39.62752 47.9725,-71.75197 107.14959,-71.75197 59.17709,0 107.1496,32.12445 107.1496,71.75197 z"
         sodipodi:ry="71.751968"
         sodipodi:rx="107.1496"
         sodipodi:cy="454.42914"
         sodipodi:cx="285.09448"
         id="path3910"
         style="fill:#f9f9f9;fill-rule:evenodd;stroke:#0000ff;stroke-width:9.9250412;stroke-linecap:butt;stroke-linejoin:miter;stroke-miterlimit:4;stroke-opacity:1;stroke-dasharray:none"
         sodipodi:type="arc" />
      <path
         id="path3912"
         d="m 176.66999,417.00377 -9.64792,-4.21888"
         style="fill:none;stroke:#0000ff;stroke-width:1.00267363;stroke-linecap:butt;stroke-linejoin:miter;stroke-miterlimit:4;stroke-opacity:1;stroke-dasharray:none" />
      <path
         id="path3914"
         d="M 170.07858,432.06975 176.4255,417.0793"
         style="fill:none;stroke:#0000ff;stroke-width:1.00267363;stroke-linecap:butt;stroke-linejoin:miter;stroke-miterlimit:4;stroke-opacity:1;stroke-dasharray:none" />
      <path
         id="path3916"
         d="m 177.15547,425.94725 -0.59626,-9.17126"
         style="fill:none;stroke:#0000ff;stroke-width:1.00267363;stroke-linecap:butt;stroke-linejoin:miter;stroke-miterlimit:4;stroke-opacity:1;stroke-dasharray:none" />
      <path
         id="path3918"
         d="m 159.40767,419.0457 17.02739,-2.09505"
         style="fill:none;stroke:#0000ff;stroke-width:1.00267363;stroke-linecap:butt;stroke-linejoin:miter;stroke-miterlimit:4;stroke-opacity:1;stroke-dasharray:none" />
    </g>
    <g
       id="g3936"
       transform="translate(467.17166,95.278013)">
      <path
         transform="matrix(0.07502854,-0.04104663,0.02293852,0.13425748,132.263,358.89638)"
         d="m 309.96851,683.07872 -107.43783,-33.64003 82.85203,-76.22387 24.5858,109.8639 z"
         inkscape:randomized="0"
         inkscape:rounded="0"
         inkscape:flatsided="true"
         sodipodi:arg2="1.8742383"
         sodipodi:arg1="0.82704074"
         sodipodi:r2="52.585148"
         sodipodi:r1="64.998817"
         sodipodi:cy="635.24408"
         sodipodi:cx="265.96063"
         sodipodi:sides="3"
         id="path3938"
         style="fill:none;stroke:#0000ff;stroke-width:9.55373955;stroke-linecap:butt;stroke-linejoin:miter;stroke-miterlimit:4;stroke-opacity:1;stroke-dasharray:none"
         sodipodi:type="star" />
      <path
         transform="matrix(-0.07740089,-0.08289747,-0.04353581,0.07464723,210.42553,411.69104)"
         d="m 394.15746,468.77951 c 0,49.66649 -49.25748,89.92913 -110.01967,89.92913 -60.76219,0 -110.01968,-40.26264 -110.01968,-89.92913 0,-49.66649 49.25749,-89.92913 110.01968,-89.92913 60.76219,0 110.01967,40.26264 110.01967,89.92913 z"
         sodipodi:ry="89.929131"
         sodipodi:rx="110.01968"
         sodipodi:cy="468.77951"
         sodipodi:cx="284.13779"
         id="path3940"
         style="fill:#008000;fill-rule:evenodd;stroke:#0000ff;stroke-width:10.34907341;stroke-linecap:butt;stroke-linejoin:miter;stroke-miterlimit:4;stroke-opacity:1;stroke-dasharray:none"
         sodipodi:type="arc" />
      <path
         transform="matrix(-0.07738637,-0.08288191,-0.04734417,0.0811771,212.105,409.18947)"
         d="m 392.24408,454.42914 c 0,39.62752 -47.97251,71.75197 -107.1496,71.75197 -59.17709,0 -107.14959,-32.12445 -107.14959,-71.75197 0,-39.62752 47.9725,-71.75197 107.14959,-71.75197 59.17709,0 107.1496,32.12445 107.1496,71.75197 z"
         sodipodi:ry="71.751968"
         sodipodi:rx="107.1496"
         sodipodi:cy="454.42914"
         sodipodi:cx="285.09448"
         id="path3942"
         style="fill:#f9f9f9;fill-rule:evenodd;stroke:#0000ff;stroke-width:9.9250412;stroke-linecap:butt;stroke-linejoin:miter;stroke-miterlimit:4;stroke-opacity:1;stroke-dasharray:none"
         sodipodi:type="arc" />
      <path
         id="path3944"
         d="m 176.66999,417.00377 -9.64792,-4.21888"
         style="fill:none;stroke:#0000ff;stroke-width:1.00267363;stroke-linecap:butt;stroke-linejoin:miter;stroke-miterlimit:4;stroke-opacity:1;stroke-dasharray:none" />
      <path
         id="path3946"
         d="M 170.07858,432.06975 176.4255,417.0793"
         style="fill:none;stroke:#0000ff;stroke-width:1.00267363;stroke-linecap:butt;stroke-linejoin:miter;stroke-miterlimit:4;stroke-opacity:1;stroke-dasharray:none" />
      <path
         id="path3948"
         d="m 177.15547,425.94725 -0.59626,-9.17126"
         style="fill:none;stroke:#0000ff;stroke-width:1.00267363;stroke-linecap:butt;stroke-linejoin:miter;stroke-miterlimit:4;stroke-opacity:1;stroke-dasharray:none" />
      <path
         id="path3950"
         d="m 159.40767,419.0457 17.02739,-2.09505"
         style="fill:none;stroke:#0000ff;stroke-width:1.00267363;stroke-linecap:butt;stroke-linejoin:miter;stroke-miterlimit:4;stroke-opacity:1;stroke-dasharray:none" />
    </g>
    <g
       transform="translate(380.44491,95.278013)"
       id="g3952">
      <path
         sodipodi:type="star"
         style="fill:none;stroke:#0000ff;stroke-width:9.55373955;stroke-linecap:butt;stroke-linejoin:miter;stroke-miterlimit:4;stroke-opacity:1;stroke-dasharray:none"
         id="path3954"
         sodipodi:sides="3"
         sodipodi:cx="265.96063"
         sodipodi:cy="635.24408"
         sodipodi:r1="64.998817"
         sodipodi:r2="52.585148"
         sodipodi:arg1="0.82704074"
         sodipodi:arg2="1.8742383"
         inkscape:flatsided="true"
         inkscape:rounded="0"
         inkscape:randomized="0"
         d="m 309.96851,683.07872 -107.43783,-33.64003 82.85203,-76.22387 24.5858,109.8639 z"
         transform="matrix(0.07502854,-0.04104663,0.02293852,0.13425748,132.263,358.89638)" />
      <path
         sodipodi:type="arc"
         style="fill:#008000;fill-rule:evenodd;stroke:#0000ff;stroke-width:10.34907341;stroke-linecap:butt;stroke-linejoin:miter;stroke-miterlimit:4;stroke-opacity:1;stroke-dasharray:none"
         id="path3956"
         sodipodi:cx="284.13779"
         sodipodi:cy="468.77951"
         sodipodi:rx="110.01968"
         sodipodi:ry="89.929131"
         d="m 394.15746,468.77951 c 0,49.66649 -49.25748,89.92913 -110.01967,89.92913 -60.76219,0 -110.01968,-40.26264 -110.01968,-89.92913 0,-49.66649 49.25749,-89.92913 110.01968,-89.92913 60.76219,0 110.01967,40.26264 110.01967,89.92913 z"
         transform="matrix(-0.07740089,-0.08289747,-0.04353581,0.07464723,210.42553,411.69104)" />
      <path
         sodipodi:type="arc"
         style="fill:#f9f9f9;fill-rule:evenodd;stroke:#0000ff;stroke-width:9.9250412;stroke-linecap:butt;stroke-linejoin:miter;stroke-miterlimit:4;stroke-opacity:1;stroke-dasharray:none"
         id="path3958"
         sodipodi:cx="285.09448"
         sodipodi:cy="454.42914"
         sodipodi:rx="107.1496"
         sodipodi:ry="71.751968"
         d="m 392.24408,454.42914 c 0,39.62752 -47.97251,71.75197 -107.1496,71.75197 -59.17709,0 -107.14959,-32.12445 -107.14959,-71.75197 0,-39.62752 47.9725,-71.75197 107.14959,-71.75197 59.17709,0 107.1496,32.12445 107.1496,71.75197 z"
         transform="matrix(-0.07738637,-0.08288191,-0.04734417,0.0811771,212.105,409.18947)" />
      <path
         style="fill:none;stroke:#0000ff;stroke-width:1.00267363;stroke-linecap:butt;stroke-linejoin:miter;stroke-miterlimit:4;stroke-opacity:1;stroke-dasharray:none"
         d="m 176.66999,417.00377 -9.64792,-4.21888"
         id="path3960" />
      <path
         style="fill:none;stroke:#0000ff;stroke-width:1.00267363;stroke-linecap:butt;stroke-linejoin:miter;stroke-miterlimit:4;stroke-opacity:1;stroke-dasharray:none"
         d="M 170.07858,432.06975 176.4255,417.0793"
         id="path3962" />
      <path
         style="fill:none;stroke:#0000ff;stroke-width:1.00267363;stroke-linecap:butt;stroke-linejoin:miter;stroke-miterlimit:4;stroke-opacity:1;stroke-dasharray:none"
         d="m 177.15547,425.94725 -0.59626,-9.17126"
         id="path3964" />
      <path
         style="fill:none;stroke:#0000ff;stroke-width:1.00267363;stroke-linecap:butt;stroke-linejoin:miter;stroke-miterlimit:4;stroke-opacity:1;stroke-dasharray:none"
         d="m 159.40767,419.0457 17.02739,-2.09505"
         id="path3966" />
    </g>
  </g>
</svg>
