<?xml version="1.0" encoding="UTF-8" standalone="no"?>
<!-- Created with Inkscape (http://www.inkscape.org/) -->

<svg
   xmlns:dc="http://purl.org/dc/elements/1.1/"
   xmlns:cc="http://creativecommons.org/ns#"
   xmlns:rdf="http://www.w3.org/1999/02/22-rdf-syntax-ns#"
   xmlns:svg="http://www.w3.org/2000/svg"
   xmlns="http://www.w3.org/2000/svg"
   xmlns:sodipodi="http://sodipodi.sourceforge.net/DTD/sodipodi-0.dtd"
   xmlns:inkscape="http://www.inkscape.org/namespaces/inkscape"
   width="297mm"
   height="210mm"
   id="svg2862"
   version="1.1"
   inkscape:version="0.48.3.1 r9886"
   sodipodi:docname="dish8-dish-uncal.svg"
   inkscape:export-filename="/home/oms/doc/Timba/Presentations/OMS/Generic/dish5.png"
   inkscape:export-xdpi="300"
   inkscape:export-ydpi="300">
  <defs
     id="defs2864">
    <inkscape:perspective
       sodipodi:type="inkscape:persp3d"
       inkscape:vp_x="0 : 372.04724 : 1"
       inkscape:vp_y="0 : 1000 : 0"
       inkscape:vp_z="1052.3622 : 372.04724 : 1"
       inkscape:persp3d-origin="526.18109 : 248.03149 : 1"
       id="perspective2871" />
  </defs>
  <sodipodi:namedview
     inkscape:document-units="mm"
     pagecolor="#ffffff"
     bordercolor="#666666"
     borderopacity="1.0"
     inkscape:pageopacity="0.0"
     inkscape:pageshadow="2"
     inkscape:zoom="1.4"
     inkscape:cx="524.7837"
     inkscape:cy="394.06262"
     inkscape:current-layer="layer1"
     id="namedview2866"
     showgrid="true"
     inkscape:window-width="1361"
     inkscape:window-height="872"
     inkscape:window-x="359"
     inkscape:window-y="165"
     inkscape:window-maximized="0"
     inkscape:snap-grids="true">
    <inkscape:grid
       type="xygrid"
       id="grid2894" />
  </sodipodi:namedview>
  <metadata
     id="metadata2868">
    <rdf:RDF>
      <cc:Work
         rdf:about="">
        <dc:format>image/svg+xml</dc:format>
        <dc:type
           rdf:resource="http://purl.org/dc/dcmitype/StillImage" />
        <dc:title></dc:title>
      </cc:Work>
    </rdf:RDF>
  </metadata>
  <g
     inkscape:label="Layer 1"
     inkscape:groupmode="layer"
     id="layer1">
    <path
       style="font-size:medium;font-style:normal;font-variant:normal;font-weight:normal;font-stretch:normal;text-indent:0;text-align:start;text-decoration:none;line-height:normal;letter-spacing:normal;word-spacing:normal;text-transform:none;direction:ltr;block-progression:tb;writing-mode:lr-tb;text-anchor:start;color:#000000;fill:#000000;fill-opacity:1;stroke:none;stroke-width:5;marker:none;visibility:visible;display:inline;overflow:visible;enable-background:accumulate;font-family:Bitstream Vera Sans;-inkscape-font-specification:Bitstream Vera Sans"
       d="m 471.92649,268.3541 -1.21875,1.15625 -1.28125,2.5 0,0.0312 -1.21875,2.53125 -0.0312,0 0,0.0312 -1.15625,2.53125 -0.0312,0.0312 0,0.0312 -1.125,2.53125 0,0.0312 0,0.0312 -1.0625,2.5625 -0.0312,0 0,0.0312 -1.03125,2.5625 0,0.0312 0,0.0312 -0.0312,0.0625 0.125,1.96875 1.53125,1.28125 1.96875,-0.25 1.0625,-1.28125 0,-0.0312 0.0312,0 0.96875,-2.5 0.0312,-0.0312 1.03125,-2.5 0,-0.0312 1.09375,-2.46875 0.0312,-0.0312 1.09375,-2.4375 0.0312,0 1.1875,-2.5 0.0312,-0.0312 1.25,-2.46875 0.125,-1.96875 -1.375,-1.46875 z"
       id="path2938" />
    <path
       style="font-size:medium;font-style:normal;font-variant:normal;font-weight:normal;font-stretch:normal;text-indent:0;text-align:start;text-decoration:none;line-height:normal;letter-spacing:normal;word-spacing:normal;text-transform:none;direction:ltr;block-progression:tb;writing-mode:lr-tb;text-anchor:start;color:#000000;fill:#cccccc;fill-opacity:1;stroke:none;stroke-width:5;marker:none;visibility:visible;display:inline;overflow:visible;enable-background:accumulate;font-family:Bitstream Vera Sans;-inkscape-font-specification:Bitstream Vera Sans"
       d="m 518.5622,242.59508 -1,1.34375 -0.28125,0.90625 0,0.0312 -0.75,2.625 -0.0312,0.0312 0,0.0312 -0.6875,2.625 -0.0312,0.0312 0,0.0312 -0.65625,2.65625 0,0.0312 -0.59375,2.65625 -0.0312,0.0312 0,0.0312 -0.53125,2.65625 -0.0312,0 0,0.0312 -0.5,2.6875 0,0.0312 -0.46875,2.6875 0,0.0312 -0.40625,2.6875 0,0.0312 -0.34375,2.6875 0,0.0312 0,0.0312 -0.3125,2.6875 0,0.0312 -0.15625,1.84375 0.625,1.90625 1.8125,0.84375 1.84375,-0.75 0.6875,-1.53125 0.15625,-1.78125 0,-0.0625 0.3125,-2.59375 0,-0.0312 0.34375,-2.59375 0,-0.0625 0.40625,-2.625 -0.0312,0 0.46875,-2.625 -0.0312,0 0.5,-2.59375 0,-0.0312 0.5625,-2.59375 0,-0.0312 0.59375,-2.5625 0,-0.0625 0.625,-2.53125 0,-0.0625 0.6875,-2.53125 0.0312,-0.0625 0.6875,-2.53125 0.0312,0 0,-0.0625 0.28125,-0.84375 -0.21875,-2 -1.59375,-1.1875 z"
       id="path2936"
       inkscape:connector-curvature="0" />
    <path
       style="font-size:medium;font-style:normal;font-variant:normal;font-weight:normal;font-stretch:normal;text-indent:0;text-align:start;text-decoration:none;line-height:normal;letter-spacing:normal;word-spacing:normal;text-transform:none;direction:ltr;block-progression:tb;writing-mode:lr-tb;text-anchor:start;color:#000000;fill:#333333;fill-opacity:1;stroke:none;stroke-width:5;marker:none;visibility:visible;display:inline;overflow:visible;enable-background:accumulate;font-family:Bitstream Vera Sans;-inkscape-font-specification:Bitstream Vera Sans"
       d="m 465.12505,327.59483 -0.59375,1.5625 -0.0312,1.625 0,0.0312 0,0.0312 0,2.6875 0,0.0312 0,0.0312 0.15625,5.375 0,0.0625 0,0.0312 0.375,5.375 0,0.0312 0,0.0625 0.53125,5.34375 0.0312,0.0312 0,0.0625 0.75,5.3125 0,0.0625 0,0.0312 0.75,4.09375 1.09375,1.65625 1.96875,0.34375 1.5625,-1.21875 0.28125,-1.65625 -0.71875,-4 0,-0.0937 -0.75,-5.15625 0.0312,0 -0.5625,-5.25 0,-0.0937 -0.34375,-5.15625 0,-0.0937 -0.15625,-5.21875 0,-0.0937 0,-2.5625 0,-0.0625 0.0312,-1.5625 -0.75,-1.84375 -1.875,-0.71875 z"
       id="path2934"
       inkscape:connector-curvature="0" />
    <path
       style="font-size:medium;font-style:normal;font-variant:normal;font-weight:normal;font-stretch:normal;text-indent:0;text-align:start;text-decoration:none;line-height:normal;letter-spacing:normal;word-spacing:normal;text-transform:none;direction:ltr;block-progression:tb;writing-mode:lr-tb;text-anchor:start;color:#000000;fill:#999999;fill-opacity:1;stroke:none;stroke-width:5;marker:none;visibility:visible;display:inline;overflow:visible;enable-background:accumulate;font-family:Bitstream Vera Sans;-inkscape-font-specification:Bitstream Vera Sans"
       d="m 502.1878,339.81383 -0.125,1.65625 0.5,1.90625 0,0.0312 0.0312,0.0312 0.71875,2.59375 0.0312,0.0312 0.78125,2.59375 0,0.0312 0.84375,2.5625 0,0.0312 0.0312,0.0312 0.875,2.53125 0,0.0312 0.0312,0.0312 0.9375,2.53125 0,0.0312 1,2.53125 0,0.0312 1.03125,2.5 0,0.0312 0.0312,0.0312 1.0625,2.5 0.0312,0 0,0.0312 1.125,2.46875 0,0.0312 0.0312,0 1.15625,2.46875 0,0.0312 0.0312,0 0.40625,0.84375 1.53125,1.28125 2,-0.25 1.15625,-1.59375 -0.21875,-1.6875 -0.40625,-0.84375 -0.0312,0 -1.125,-2.40625 -0.0312,0 -1.0625,-2.375 -0.0312,-0.0625 -1.03125,-2.375 -0.0312,-0.0625 -0.96875,-2.40625 -0.0312,-0.0625 -0.9375,-2.4375 -0.0312,0 0,-0.0312 -0.90625,-2.5 -0.0312,0 -0.84375,-2.46875 0,-0.0312 -0.8125,-2.46875 0,-0.0625 -0.0312,0 -0.75,-2.46875 0,-0.0625 -0.0312,0 -0.71875,-2.5 0.0312,0 -0.53125,-1.90625 -1.21875,-1.5625 -2,-0.15625 z"
       id="path2932"
       inkscape:connector-curvature="0" />
    <path
       style="font-size:medium;font-style:normal;font-variant:normal;font-weight:normal;font-stretch:normal;text-indent:0;text-align:start;text-decoration:none;line-height:normal;letter-spacing:normal;word-spacing:normal;text-transform:none;direction:ltr;block-progression:tb;writing-mode:lr-tb;text-anchor:start;color:#000000;fill:#808080;fill-opacity:1;stroke:none;stroke-width:5;marker:none;visibility:visible;display:inline;overflow:visible;enable-background:accumulate;font-family:Bitstream Vera Sans;-inkscape-font-specification:Bitstream Vera Sans"
       d="m 475.11399,409.13535 -1.0625,1.6875 0.34375,1.65625 1.40625,2.3125 0,0.0312 0,0.0312 1.46875,2.3125 0.0312,0.0312 0,0.0312 1.5,2.28125 0.0312,0.0312 0,0.0312 1.5625,2.28125 0.0312,0.0312 1.59375,2.25 0.0312,0.0312 1.65625,2.25 0.0312,0.0312 1.6875,2.21875 0.0312,0.0312 1.75,2.1875 0.0312,0.0312 1.78125,2.15625 0.0312,0.0312 1.84375,2.125 0.0312,0.0312 1.53125,1.6875 1.8125,0.84375 1.84375,-0.78125 0.6875,-1.875 -0.625,-1.53125 -1.5,-1.65625 -0.0312,-0.0312 -1.78125,-2.0625 -0.0312,-0.0312 -1.71875,-2.0625 -0.0312,-0.0625 -1.6875,-2.09375 -0.0312,-0.0312 -1.65625,-2.1875 -0.0312,0.0312 -1.5625,-2.15625 -0.0312,-0.0625 -1.5625,-2.15625 -0.0312,-0.0625 -1.5,-2.1875 -0.0312,-0.0312 -1.4375,-2.25 -0.0312,-0.0312 -1.40625,-2.25 -0.0312,-0.0312 -1.375,-2.3125 -1.625,-1.15625 z"
       id="path2930" />
    <path
       style="font-size:medium;font-style:normal;font-variant:normal;font-weight:normal;font-stretch:normal;text-indent:0;text-align:start;text-decoration:none;line-height:normal;letter-spacing:normal;word-spacing:normal;text-transform:none;direction:ltr;block-progression:tb;writing-mode:lr-tb;text-anchor:start;color:#000000;fill:#e6e6e6;fill-opacity:1;stroke:none;stroke-width:5;marker:none;visibility:visible;display:inline;overflow:visible;enable-background:accumulate;font-family:Bitstream Vera Sans;-inkscape-font-specification:Bitstream Vera Sans"
       d="m 486.5316,449.37613 -0.5625,1.90625 0.78125,1.5 1.84375,1.75 0.0312,0.0312 0,0.0312 2.71875,2.4375 0.0312,0.0312 0.0312,0.0312 2.78125,2.375 0.0312,0.0312 2.8125,2.28125 0.0312,0.0312 0.0312,0.0312 2.875,2.21875 0.0312,0.0312 2.90625,2.125 0.0312,0.0312 0.0312,0 2.9375,2.0625 0.0312,0.0312 0.0312,0 2.96875,1.96875 0.0312,0.0312 0.0312,0 1.78125,1.125 1.96875,0.28125 1.5625,-1.21875 0.15625,-2 -1.03125,-1.3125 -1.71875,-1.0625 -0.0625,-0.0312 -2.875,-1.90625 -0.0625,-0.0312 -2.84375,-2 -0.0625,-0.0312 -2.8125,-2.0625 -0.0312,-0.0312 -2.78125,-2.15625 -0.0312,-0.0312 -2.71875,-2.21875 -0.0625,-0.0312 -2.65625,-2.3125 -0.0625,-0.0312 -2.625,-2.375 -0.0312,-0.0312 -1.8125,-1.71875 -1.875,-0.6875 z"
       id="path2928"
       inkscape:connector-curvature="0" />
    <path
       style="font-size:medium;font-style:normal;font-variant:normal;font-weight:normal;font-stretch:normal;text-indent:0;text-align:start;text-decoration:none;line-height:normal;letter-spacing:normal;word-spacing:normal;text-transform:none;direction:ltr;block-progression:tb;writing-mode:lr-tb;text-anchor:start;color:#000000;fill:#000000;fill-opacity:1;stroke:none;stroke-width:5;marker:none;visibility:visible;display:inline;overflow:visible;enable-background:accumulate;font-family:Bitstream Vera Sans;-inkscape-font-specification:Bitstream Vera Sans"
       d="m 695.80149,444.51035 -2.78125,2.40625 -0.0625,0.0312 -2.78125,2.28125 -0.0312,0.0312 -2.8125,2.21875 -0.0312,-0.0312 -2.90625,2.15625 -0.0625,0.0312 -0.46875,0.34375 -1.0625,1.6875 0.53125,1.9375 1.78125,0.90625 1.59375,-0.4375 0.53125,-0.375 0.0312,0 0.0312,-0.0312 2.96875,-2.1875 0.0312,0 0.0312,-0.0312 2.90625,-2.28125 0.0312,0 0.0312,-0.0312 2.875,-2.34375 0.0312,-0.0312 0.0312,0 2.8125,-2.46875 0.875,-1.78125 -0.71875,-1.84375 -1.84375,-0.75 z"
       id="path2926" />
    <path
       style="font-size:medium;font-style:normal;font-variant:normal;font-weight:normal;font-stretch:normal;text-indent:0;text-align:start;text-decoration:none;line-height:normal;letter-spacing:normal;word-spacing:normal;text-transform:none;direction:ltr;block-progression:tb;writing-mode:lr-tb;text-anchor:start;color:#000000;fill:#808080;fill-opacity:1;stroke:none;stroke-width:5;marker:none;visibility:visible;display:inline;overflow:visible;enable-background:accumulate;font-family:Bitstream Vera Sans;-inkscape-font-specification:Bitstream Vera Sans"
       d="m 702.625,427.25093 -0.1875,0.125 -0.0625,0.0312 -3,1.78125 -0.0625,0.0312 -3.03125,1.6875 -0.0625,0.0312 -3.125,1.625 0,0.0312 -3.09375,1.5 -0.0625,0.0312 -3.1875,1.46875 0,0.0312 -3.15625,1.34375 -0.0625,0.0312 -3.1875,1.28125 0,0.0312 -0.0312,0 -3.21875,1.1875 -0.0625,0.0312 -0.9375,0.34375 -1.46875,1.34375 0,2 1.4375,1.34375 1.65625,0.0312 1.03125,-0.375 0.0312,0 0.0312,0 3.3125,-1.25 0.0312,0 0.0312,-0.0312 3.28125,-1.3125 0.0312,-0.0312 0.0312,0 3.25,-1.4375 0.0312,0 0.0312,0 3.25,-1.5 0.0312,-0.0312 0.0312,0 3.1875,-1.59375 0.0312,0 0.0312,-0.0312 3.1875,-1.65625 0.0312,-0.0312 0.0312,0 3.15625,-1.75 0,-0.0312 0.0312,0 3.125,-1.84375 0.0312,-0.0312 0.0312,0 0.25,-0.15625 1.125,-1.65625 -0.4375,-1.9375 -1.71875,-1.03125 z"
       id="path2924"
       inkscape:connector-curvature="0" />
    <path
       style="font-size:medium;font-style:normal;font-variant:normal;font-weight:normal;font-stretch:normal;text-indent:0;text-align:start;text-decoration:none;line-height:normal;letter-spacing:normal;word-spacing:normal;text-transform:none;direction:ltr;block-progression:tb;writing-mode:lr-tb;text-anchor:start;color:#000000;fill:#333333;fill-opacity:1;stroke:none;stroke-width:5;marker:none;visibility:visible;display:inline;overflow:visible;enable-background:accumulate;font-family:Bitstream Vera Sans;-inkscape-font-specification:Bitstream Vera Sans"
       d="m 535.282,459.93833 0,2 1.125,1.21875 1.90625,1 0.0312,0.0312 0.0312,0 3.15625,1.5625 0.0312,0.0312 0.0312,0 3.1875,1.5 0.0312,0 0.0312,0.0312 3.21875,1.40625 0.0312,0 0.0312,0 3.25,1.34375 0.0312,0 0.0312,0.0312 3.28125,1.21875 0.0312,0.0312 0.0312,0 3.28125,1.15625 0.0312,0.0312 0.0312,0 3.34375,1.0625 0.0312,0.0312 0.0312,0 3.09375,0.9375 2,-0.25 1.15625,-1.59375 -0.375,-1.96875 -1.34375,-1 -3.0625,-0.875 0,-0.0312 -0.0625,0 -3.1875,-1.03125 0,-0.0312 -3.25,-1.125 -0.0625,-0.0312 -3.1875,-1.1875 -0.0312,0 0,-0.0312 -3.15625,-1.28125 -0.0625,-0.0312 -3.125,-1.34375 -0.0312,-0.0312 -3.09375,-1.4375 -0.0625,-0.0312 -3.0625,-1.5 -0.0312,-0.0312 -1.84375,-0.96875 -2,-0.15625 z"
       id="path2922"
       inkscape:connector-curvature="0" />
    <path
       style="font-size:medium;font-style:normal;font-variant:normal;font-weight:normal;font-stretch:normal;text-indent:0;text-align:start;text-decoration:none;line-height:normal;letter-spacing:normal;word-spacing:normal;text-transform:none;direction:ltr;block-progression:tb;writing-mode:lr-tb;text-anchor:start;color:#000000;fill:#cccccc;fill-opacity:1;stroke:none;stroke-width:5;marker:none;visibility:visible;display:inline;overflow:visible;enable-background:accumulate;font-family:Bitstream Vera Sans;-inkscape-font-specification:Bitstream Vera Sans"
       d="m 600.1562,511.90698 -0.0625,0 -3.3125,0.8125 -0.0625,0 -3.28125,0.71875 -0.0625,0 -3.34375,0.65625 -0.0312,0 -3.34375,0.5625 -0.0625,0 -3.34375,0.46875 -0.0625,0 -3.34375,0.40625 -0.0625,0 -3.34375,0.3125 -0.0625,0 -2.40625,0.1875 -1.78125,0.90625 -0.53125,1.90625 1.03125,1.71875 1.625,0.4375 2.46875,-0.15625 0.0312,0 0.0312,0 3.46875,-0.34375 0.0312,0 0.0312,0 3.46875,-0.40625 0.0312,0 0.0312,0 3.4375,-0.5 0.0312,0 0.0312,0 3.46875,-0.59375 0.0312,0 0.0312,0 3.4375,-0.65625 0.0312,0 3.4375,-0.75 0.0312,0 0.0312,0 3.40625,-0.84375 0.0312,0 0.0312,0 2.9375,-0.78125 1.5625,-1.25 0.15625,-2 -1.34375,-1.46875 -1.6875,-0.125 z"
       id="path2920"
       inkscape:connector-curvature="0" />
    <path
       style="font-size:medium;font-style:normal;font-variant:normal;font-weight:normal;font-stretch:normal;text-indent:0;text-align:start;text-decoration:none;line-height:normal;letter-spacing:normal;word-spacing:normal;text-transform:none;direction:ltr;block-progression:tb;writing-mode:lr-tb;text-anchor:start;color:#000000;fill:#b3b3b3;fill-opacity:1;stroke:none;stroke-width:5;marker:none;visibility:visible;display:inline;overflow:visible;enable-background:accumulate;font-family:Bitstream Vera Sans;-inkscape-font-specification:Bitstream Vera Sans"
       d="m 580.40715,461.84458 -1.0625,1.6875 0.53125,1.90625 1.40625,0.90625 0.71875,0.15625 0.0312,0 0.0312,0 3.40625,0.6875 0.0312,0 0.0312,0 3.4375,0.59375 0.0312,0 0.0312,0 3.4375,0.5 0.0312,0 0.0312,0.0312 3.4375,0.40625 0.0312,0 0.0312,0 3.46875,0.34375 0.0312,0 0.0312,0 3.46875,0.28125 0.0312,0 0.0312,0 3.46875,0.15625 0.0312,0.0312 0.0312,0 3.46875,0.0937 0.0312,0 0.0312,0 1.4375,0 1.84375,-0.8125 0.65625,-1.875 -0.90625,-1.75 -1.59375,-0.5625 -1.375,0 -0.0625,0 -3.34375,-0.0937 -0.0625,0 -3.34375,-0.1875 -0.0625,0 -3.34375,-0.25 -0.0625,0 -3.34375,-0.34375 -0.0625,0 -3.34375,-0.40625 -0.0625,0 -3.3125,-0.5 -0.0625,0 -3.375,-0.59375 -3.3125,-0.65625 -0.0625,0 -0.625,-0.125 z"
       id="path3680"
       inkscape:connector-curvature="0" />
    <path
       style="fill:#1a1a1a;stroke:#000000;stroke-width:3.25;stroke-linecap:butt;stroke-linejoin:miter;stroke-opacity:1;stroke-miterlimit:4;stroke-dasharray:none"
       d="m 700.20534,534.49354 -460.66141,0"
       id="path3697" />
    <path
       style="fill:none;stroke:#008000;stroke-width:1.625;stroke-linecap:butt;stroke-linejoin:miter;stroke-miterlimit:4;stroke-opacity:1;stroke-dasharray:none"
       d="m 307.28567,534.85604 0,0.57582 0,-1.15165"
       id="path4689"
       sodipodi:nodetypes="ccc" />
    <path
       inkscape:connector-curvature="0"
       style="fill:#0000ff;stroke:#0000ff;stroke-width:4.44695329999999966;stroke-linecap:butt;stroke-linejoin:miter;stroke-miterlimit:4;stroke-opacity:1;stroke-dasharray:none"
       d="m 600,309.09448 30,25 0,0"
       id="path3687" />
    <path
       inkscape:connector-curvature="0"
       style="fill:none;stroke:#008000;stroke-width:0.99921262;stroke-linecap:butt;stroke-linejoin:miter;stroke-miterlimit:4;stroke-opacity:1;stroke-dasharray:2.9976378, 0.9992126;stroke-dashoffset:0"
       d="m 706.94622,154.09448 -195,195 0,0 L 650,295.63353"
       id="path3689-7"
       sodipodi:nodetypes="cccc" />
    <path
       inkscape:connector-curvature="0"
       style="fill:none;stroke:#008000;stroke-width:0.99921262;stroke-linecap:butt;stroke-linejoin:miter;stroke-miterlimit:4;stroke-opacity:1;stroke-dasharray:2.9976378, 0.9992126;stroke-dashoffset:0"
       d="m 746.62868,272.46579 -195,195 L 600,324.09448"
       id="path3691-5"
       sodipodi:nodetypes="ccc" />
    <path
       sodipodi:nodetypes="cccc"
       id="path3050"
       d="m 730,174.09448 -218.05378,173.46095 0,0 154.37512,-47.55583"
       style="fill:none;stroke:#4d0080;stroke-width:0.99656575999999997;stroke-linecap:butt;stroke-linejoin:miter;stroke-miterlimit:4;stroke-opacity:1;stroke-dasharray:2.98969724999999986, 0.99656575000000003;stroke-dashoffset:0"
       inkscape:connector-curvature="0" />
    <path
       sodipodi:nodetypes="ccc"
       id="path3052"
       d="M 760,284.09448 551.62868,467.46579 603.31686,332.64433"
       style="fill:none;stroke:#4d0080;stroke-width:1.00163150000000001;stroke-linecap:butt;stroke-linejoin:miter;stroke-miterlimit:4;stroke-opacity:1;stroke-dasharray:3.00489434999999983, 1.00163145000000009;stroke-dashoffset:0"
       inkscape:connector-curvature="0" />
  </g>
</svg>
