<?xml version="1.0" encoding="UTF-8" standalone="no"?>
<!-- Created with Inkscape (http://www.inkscape.org/) -->

<svg
   xmlns:dc="http://purl.org/dc/elements/1.1/"
   xmlns:cc="http://creativecommons.org/ns#"
   xmlns:rdf="http://www.w3.org/1999/02/22-rdf-syntax-ns#"
   xmlns:svg="http://www.w3.org/2000/svg"
   xmlns="http://www.w3.org/2000/svg"
   xmlns:sodipodi="http://sodipodi.sourceforge.net/DTD/sodipodi-0.dtd"
   xmlns:inkscape="http://www.inkscape.org/namespaces/inkscape"
   width="297mm"
   height="210mm"
   id="svg2862"
   version="1.1"
   inkscape:version="0.47 r22583"
   sodipodi:docname="ifr-grating-rings.svg"
   inkscape:export-filename="/home/oms/doc/Timba/Presentations/OMS/Generic/ifr-grating-rings.png"
   inkscape:export-xdpi="300"
   inkscape:export-ydpi="300">
  <defs
     id="defs2864">
    <inkscape:perspective
       sodipodi:type="inkscape:persp3d"
       inkscape:vp_x="0 : 372.04724 : 1"
       inkscape:vp_y="0 : 1000 : 0"
       inkscape:vp_z="1052.3622 : 372.04724 : 1"
       inkscape:persp3d-origin="526.18109 : 248.03149 : 1"
       id="perspective2871" />
    <inkscape:perspective
       id="perspective3005"
       inkscape:persp3d-origin="0.5 : 0.33333333 : 1"
       inkscape:vp_z="1 : 0.5 : 1"
       inkscape:vp_y="0 : 1000 : 0"
       inkscape:vp_x="0 : 0.5 : 1"
       sodipodi:type="inkscape:persp3d" />
  </defs>
  <sodipodi:namedview
     inkscape:document-units="mm"
     pagecolor="#ffffff"
     bordercolor="#666666"
     borderopacity="1.0"
     inkscape:pageopacity="0.0"
     inkscape:pageshadow="2"
     inkscape:zoom="2.429675"
     inkscape:cx="586.80618"
     inkscape:cy="306.91574"
     inkscape:current-layer="layer1"
     id="namedview2866"
     showgrid="true"
     inkscape:window-width="1440"
     inkscape:window-height="825"
     inkscape:window-x="0"
     inkscape:window-y="25"
     inkscape:window-maximized="1"
     inkscape:snap-grids="false"
     inkscape:snap-to-guides="false"
     showguides="true"
     inkscape:guide-bbox="true">
    <inkscape:grid
       type="xygrid"
       id="grid2894" />
    <sodipodi:guide
       orientation="1,0"
       position="247.95702,319.55024"
       id="guide2898" />
    <sodipodi:guide
       orientation="1,0"
       position="318.96818,281.13436"
       id="guide2900" />
    <sodipodi:guide
       orientation="1,0"
       position="390.56141,203.1385"
       id="guide2902" />
    <sodipodi:guide
       orientation="1,0"
       position="460.40845,189.16909"
       id="guide2904" />
    <sodipodi:guide
       orientation="1,0"
       position="532.00168,171.12527"
       id="guide2906" />
    <sodipodi:guide
       orientation="1,0"
       position="602.43078,197.31791"
       id="guide2908" />
    <sodipodi:guide
       orientation="1,0"
       position="673.44195,175.78174"
       id="guide2910" />
  </sodipodi:namedview>
  <metadata
     id="metadata2868">
    <rdf:RDF>
      <cc:Work
         rdf:about="">
        <dc:format>image/svg+xml</dc:format>
        <dc:type
           rdf:resource="http://purl.org/dc/dcmitype/StillImage" />
        <dc:title></dc:title>
      </cc:Work>
    </rdf:RDF>
  </metadata>
  <g
     inkscape:label="Layer 1"
     inkscape:groupmode="layer"
     id="layer1">
    <path
       style="fill:#1a1a1a;stroke:#000000;stroke-width:3.25;stroke-linecap:butt;stroke-linejoin:miter;stroke-miterlimit:4;stroke-opacity:1;stroke-dasharray:none"
       d="m 700.20534,524.28664 -460.66141,0"
       id="path3697" />
    <path
       style="fill:none;stroke:#008000;stroke-width:1.625;stroke-linecap:butt;stroke-linejoin:miter;stroke-miterlimit:4;stroke-opacity:1;stroke-dasharray:none"
       d="m 307.28567,524.52332 0,0.57582 0,-1.15165"
       id="path4689"
       sodipodi:nodetypes="ccc" />
    <g
       transform="translate(161.65719,87.528653)"
       id="g3824">
      <path
         sodipodi:type="star"
         style="fill:none;stroke:#0000ff;stroke-width:9.55373955;stroke-linecap:butt;stroke-linejoin:miter;stroke-miterlimit:4;stroke-opacity:1;stroke-dasharray:none"
         id="path3826"
         sodipodi:sides="3"
         sodipodi:cx="265.96063"
         sodipodi:cy="635.24408"
         sodipodi:r1="64.998817"
         sodipodi:r2="52.585148"
         sodipodi:arg1="0.82704074"
         sodipodi:arg2="1.8742383"
         inkscape:flatsided="true"
         inkscape:rounded="0"
         inkscape:randomized="0"
         d="m 309.96851,683.07872 -107.43783,-33.64003 82.85203,-76.22387 24.5858,109.8639 z"
         transform="matrix(0.07502854,-0.04104663,0.02293852,0.13425748,132.263,358.89638)" />
      <path
         sodipodi:type="arc"
         style="fill:#008000;fill-rule:evenodd;stroke:#0000ff;stroke-width:10.34907341;stroke-linecap:butt;stroke-linejoin:miter;stroke-miterlimit:4;stroke-opacity:1;stroke-dasharray:none"
         id="path3828"
         sodipodi:cx="284.13779"
         sodipodi:cy="468.77951"
         sodipodi:rx="110.01968"
         sodipodi:ry="89.929131"
         d="m 394.15746,468.77951 c 0,49.66649 -49.25748,89.92913 -110.01967,89.92913 -60.76219,0 -110.01968,-40.26264 -110.01968,-89.92913 0,-49.66649 49.25749,-89.92913 110.01968,-89.92913 60.76219,0 110.01967,40.26264 110.01967,89.92913 z"
         transform="matrix(-0.07740089,-0.08289747,-0.04353581,0.07464723,210.42553,411.69104)" />
      <path
         sodipodi:type="arc"
         style="fill:#f9f9f9;fill-rule:evenodd;stroke:#0000ff;stroke-width:9.9250412;stroke-linecap:butt;stroke-linejoin:miter;stroke-miterlimit:4;stroke-opacity:1;stroke-dasharray:none"
         id="path3830"
         sodipodi:cx="285.09448"
         sodipodi:cy="454.42914"
         sodipodi:rx="107.1496"
         sodipodi:ry="71.751968"
         d="m 392.24408,454.42914 c 0,39.62752 -47.97251,71.75197 -107.1496,71.75197 -59.17709,0 -107.14959,-32.12445 -107.14959,-71.75197 0,-39.62752 47.9725,-71.75197 107.14959,-71.75197 59.17709,0 107.1496,32.12445 107.1496,71.75197 z"
         transform="matrix(-0.07738637,-0.08288191,-0.04734417,0.0811771,212.105,409.18947)" />
      <path
         style="fill:none;stroke:#0000ff;stroke-width:1.00267363;stroke-linecap:butt;stroke-linejoin:miter;stroke-miterlimit:4;stroke-opacity:1;stroke-dasharray:none"
         d="m 176.66999,417.00377 -9.64792,-4.21888"
         id="path3832" />
      <path
         style="fill:none;stroke:#0000ff;stroke-width:1.00267363;stroke-linecap:butt;stroke-linejoin:miter;stroke-miterlimit:4;stroke-opacity:1;stroke-dasharray:none"
         d="M 170.07858,432.06975 176.4255,417.0793"
         id="path3834" />
      <path
         style="fill:none;stroke:#0000ff;stroke-width:1.00267363;stroke-linecap:butt;stroke-linejoin:miter;stroke-miterlimit:4;stroke-opacity:1;stroke-dasharray:none"
         d="m 177.15547,425.94725 -0.59626,-9.17126"
         id="path3836" />
      <path
         style="fill:none;stroke:#0000ff;stroke-width:1.00267363;stroke-linecap:butt;stroke-linejoin:miter;stroke-miterlimit:4;stroke-opacity:1;stroke-dasharray:none"
         d="m 159.40767,419.0457 17.02739,-2.09505"
         id="path3838" />
    </g>
    <g
       id="g3840"
       transform="translate(232.21967,87.528653)">
      <path
         transform="matrix(0.07502854,-0.04104663,0.02293852,0.13425748,132.263,358.89638)"
         d="m 309.96851,683.07872 -107.43783,-33.64003 82.85203,-76.22387 24.5858,109.8639 z"
         inkscape:randomized="0"
         inkscape:rounded="0"
         inkscape:flatsided="true"
         sodipodi:arg2="1.8742383"
         sodipodi:arg1="0.82704074"
         sodipodi:r2="52.585148"
         sodipodi:r1="64.998817"
         sodipodi:cy="635.24408"
         sodipodi:cx="265.96063"
         sodipodi:sides="3"
         id="path3842"
         style="fill:none;stroke:#0000ff;stroke-width:9.55373955;stroke-linecap:butt;stroke-linejoin:miter;stroke-miterlimit:4;stroke-opacity:1;stroke-dasharray:none"
         sodipodi:type="star" />
      <path
         transform="matrix(-0.07740089,-0.08289747,-0.04353581,0.07464723,210.42553,411.69104)"
         d="m 394.15746,468.77951 c 0,49.66649 -49.25748,89.92913 -110.01967,89.92913 -60.76219,0 -110.01968,-40.26264 -110.01968,-89.92913 0,-49.66649 49.25749,-89.92913 110.01968,-89.92913 60.76219,0 110.01967,40.26264 110.01967,89.92913 z"
         sodipodi:ry="89.929131"
         sodipodi:rx="110.01968"
         sodipodi:cy="468.77951"
         sodipodi:cx="284.13779"
         id="path3844"
         style="fill:#008000;fill-rule:evenodd;stroke:#0000ff;stroke-width:10.34907341;stroke-linecap:butt;stroke-linejoin:miter;stroke-miterlimit:4;stroke-opacity:1;stroke-dasharray:none"
         sodipodi:type="arc" />
      <path
         transform="matrix(-0.07738637,-0.08288191,-0.04734417,0.0811771,212.105,409.18947)"
         d="m 392.24408,454.42914 c 0,39.62752 -47.97251,71.75197 -107.1496,71.75197 -59.17709,0 -107.14959,-32.12445 -107.14959,-71.75197 0,-39.62752 47.9725,-71.75197 107.14959,-71.75197 59.17709,0 107.1496,32.12445 107.1496,71.75197 z"
         sodipodi:ry="71.751968"
         sodipodi:rx="107.1496"
         sodipodi:cy="454.42914"
         sodipodi:cx="285.09448"
         id="path3846"
         style="fill:#f9f9f9;fill-rule:evenodd;stroke:#0000ff;stroke-width:9.9250412;stroke-linecap:butt;stroke-linejoin:miter;stroke-miterlimit:4;stroke-opacity:1;stroke-dasharray:none"
         sodipodi:type="arc" />
      <path
         id="path3848"
         d="m 176.66999,417.00377 -9.64792,-4.21888"
         style="fill:none;stroke:#0000ff;stroke-width:1.00267363;stroke-linecap:butt;stroke-linejoin:miter;stroke-miterlimit:4;stroke-opacity:1;stroke-dasharray:none" />
      <path
         id="path3850"
         d="M 170.07858,432.06975 176.4255,417.0793"
         style="fill:none;stroke:#0000ff;stroke-width:1.00267363;stroke-linecap:butt;stroke-linejoin:miter;stroke-miterlimit:4;stroke-opacity:1;stroke-dasharray:none" />
      <path
         id="path3852"
         d="m 177.15547,425.94725 -0.59626,-9.17126"
         style="fill:none;stroke:#0000ff;stroke-width:1.00267363;stroke-linecap:butt;stroke-linejoin:miter;stroke-miterlimit:4;stroke-opacity:1;stroke-dasharray:none" />
      <path
         id="path3854"
         d="m 159.40767,419.0457 17.02739,-2.09505"
         style="fill:none;stroke:#0000ff;stroke-width:1.00267363;stroke-linecap:butt;stroke-linejoin:miter;stroke-miterlimit:4;stroke-opacity:1;stroke-dasharray:none" />
    </g>
    <g
       id="g3872"
       transform="translate(89.822875,87.528653)">
      <path
         transform="matrix(0.07502854,-0.04104663,0.02293852,0.13425748,132.263,358.89638)"
         d="m 309.96851,683.07872 -107.43783,-33.64003 82.85203,-76.22387 24.5858,109.8639 z"
         inkscape:randomized="0"
         inkscape:rounded="0"
         inkscape:flatsided="true"
         sodipodi:arg2="1.8742383"
         sodipodi:arg1="0.82704074"
         sodipodi:r2="52.585148"
         sodipodi:r1="64.998817"
         sodipodi:cy="635.24408"
         sodipodi:cx="265.96063"
         sodipodi:sides="3"
         id="path3874"
         style="fill:none;stroke:#0000ff;stroke-width:9.55373955;stroke-linecap:butt;stroke-linejoin:miter;stroke-miterlimit:4;stroke-opacity:1;stroke-dasharray:none"
         sodipodi:type="star" />
      <path
         transform="matrix(-0.07740089,-0.08289747,-0.04353581,0.07464723,210.42553,411.69104)"
         d="m 394.15746,468.77951 c 0,49.66649 -49.25748,89.92913 -110.01967,89.92913 -60.76219,0 -110.01968,-40.26264 -110.01968,-89.92913 0,-49.66649 49.25749,-89.92913 110.01968,-89.92913 60.76219,0 110.01967,40.26264 110.01967,89.92913 z"
         sodipodi:ry="89.929131"
         sodipodi:rx="110.01968"
         sodipodi:cy="468.77951"
         sodipodi:cx="284.13779"
         id="path3876"
         style="fill:#008000;fill-rule:evenodd;stroke:#0000ff;stroke-width:10.34907341;stroke-linecap:butt;stroke-linejoin:miter;stroke-miterlimit:4;stroke-opacity:1;stroke-dasharray:none"
         sodipodi:type="arc" />
      <path
         transform="matrix(-0.07738637,-0.08288191,-0.04734417,0.0811771,212.105,409.18947)"
         d="m 392.24408,454.42914 c 0,39.62752 -47.97251,71.75197 -107.1496,71.75197 -59.17709,0 -107.14959,-32.12445 -107.14959,-71.75197 0,-39.62752 47.9725,-71.75197 107.14959,-71.75197 59.17709,0 107.1496,32.12445 107.1496,71.75197 z"
         sodipodi:ry="71.751968"
         sodipodi:rx="107.1496"
         sodipodi:cy="454.42914"
         sodipodi:cx="285.09448"
         id="path3878"
         style="fill:#f9f9f9;fill-rule:evenodd;stroke:#0000ff;stroke-width:9.9250412;stroke-linecap:butt;stroke-linejoin:miter;stroke-miterlimit:4;stroke-opacity:1;stroke-dasharray:none"
         sodipodi:type="arc" />
      <path
         id="path3880"
         d="m 176.66999,417.00377 -9.64792,-4.21888"
         style="fill:none;stroke:#0000ff;stroke-width:1.00267363;stroke-linecap:butt;stroke-linejoin:miter;stroke-miterlimit:4;stroke-opacity:1;stroke-dasharray:none" />
      <path
         id="path3882"
         d="M 170.07858,432.06975 176.4255,417.0793"
         style="fill:none;stroke:#0000ff;stroke-width:1.00267363;stroke-linecap:butt;stroke-linejoin:miter;stroke-miterlimit:4;stroke-opacity:1;stroke-dasharray:none" />
      <path
         id="path3884"
         d="m 177.15547,425.94725 -0.59626,-9.17126"
         style="fill:none;stroke:#0000ff;stroke-width:1.00267363;stroke-linecap:butt;stroke-linejoin:miter;stroke-miterlimit:4;stroke-opacity:1;stroke-dasharray:none" />
      <path
         id="path3886"
         d="m 159.40767,419.0457 17.02739,-2.09505"
         style="fill:none;stroke:#0000ff;stroke-width:1.00267363;stroke-linecap:butt;stroke-linejoin:miter;stroke-miterlimit:4;stroke-opacity:1;stroke-dasharray:none" />
    </g>
    <g
       id="g3888"
       transform="translate(302.37255,87.528653)">
      <path
         transform="matrix(0.07502854,-0.04104663,0.02293852,0.13425748,132.263,358.89638)"
         d="m 309.96851,683.07872 -107.43783,-33.64003 82.85203,-76.22387 24.5858,109.8639 z"
         inkscape:randomized="0"
         inkscape:rounded="0"
         inkscape:flatsided="true"
         sodipodi:arg2="1.8742383"
         sodipodi:arg1="0.82704074"
         sodipodi:r2="52.585148"
         sodipodi:r1="64.998817"
         sodipodi:cy="635.24408"
         sodipodi:cx="265.96063"
         sodipodi:sides="3"
         id="path3890"
         style="fill:none;stroke:#0000ff;stroke-width:9.55373955;stroke-linecap:butt;stroke-linejoin:miter;stroke-miterlimit:4;stroke-opacity:1;stroke-dasharray:none"
         sodipodi:type="star" />
      <path
         transform="matrix(-0.07740089,-0.08289747,-0.04353581,0.07464723,210.42553,411.69104)"
         d="m 394.15746,468.77951 c 0,49.66649 -49.25748,89.92913 -110.01967,89.92913 -60.76219,0 -110.01968,-40.26264 -110.01968,-89.92913 0,-49.66649 49.25749,-89.92913 110.01968,-89.92913 60.76219,0 110.01967,40.26264 110.01967,89.92913 z"
         sodipodi:ry="89.929131"
         sodipodi:rx="110.01968"
         sodipodi:cy="468.77951"
         sodipodi:cx="284.13779"
         id="path3892"
         style="fill:#008000;fill-rule:evenodd;stroke:#0000ff;stroke-width:10.34907341;stroke-linecap:butt;stroke-linejoin:miter;stroke-miterlimit:4;stroke-opacity:1;stroke-dasharray:none"
         sodipodi:type="arc" />
      <path
         transform="matrix(-0.07738637,-0.08288191,-0.04734417,0.0811771,212.105,409.18947)"
         d="m 392.24408,454.42914 c 0,39.62752 -47.97251,71.75197 -107.1496,71.75197 -59.17709,0 -107.14959,-32.12445 -107.14959,-71.75197 0,-39.62752 47.9725,-71.75197 107.14959,-71.75197 59.17709,0 107.1496,32.12445 107.1496,71.75197 z"
         sodipodi:ry="71.751968"
         sodipodi:rx="107.1496"
         sodipodi:cy="454.42914"
         sodipodi:cx="285.09448"
         id="path3894"
         style="fill:#f9f9f9;fill-rule:evenodd;stroke:#0000ff;stroke-width:9.9250412;stroke-linecap:butt;stroke-linejoin:miter;stroke-miterlimit:4;stroke-opacity:1;stroke-dasharray:none"
         sodipodi:type="arc" />
      <path
         id="path3896"
         d="m 176.66999,417.00377 -9.64792,-4.21888"
         style="fill:none;stroke:#0000ff;stroke-width:1.00267363;stroke-linecap:butt;stroke-linejoin:miter;stroke-miterlimit:4;stroke-opacity:1;stroke-dasharray:none" />
      <path
         id="path3898"
         d="M 170.07858,432.06975 176.4255,417.0793"
         style="fill:none;stroke:#0000ff;stroke-width:1.00267363;stroke-linecap:butt;stroke-linejoin:miter;stroke-miterlimit:4;stroke-opacity:1;stroke-dasharray:none" />
      <path
         id="path3900"
         d="m 177.15547,425.94725 -0.59626,-9.17126"
         style="fill:none;stroke:#0000ff;stroke-width:1.00267363;stroke-linecap:butt;stroke-linejoin:miter;stroke-miterlimit:4;stroke-opacity:1;stroke-dasharray:none" />
      <path
         id="path3902"
         d="m 159.40767,419.0457 17.02739,-2.09505"
         style="fill:none;stroke:#0000ff;stroke-width:1.00267363;stroke-linecap:butt;stroke-linejoin:miter;stroke-miterlimit:4;stroke-opacity:1;stroke-dasharray:none" />
    </g>
    <g
       id="g3904"
       transform="translate(444.14253,87.528653)">
      <path
         transform="matrix(0.07502854,-0.04104663,0.02293852,0.13425748,132.263,358.89638)"
         d="m 309.96851,683.07872 -107.43783,-33.64003 82.85203,-76.22387 24.5858,109.8639 z"
         inkscape:randomized="0"
         inkscape:rounded="0"
         inkscape:flatsided="true"
         sodipodi:arg2="1.8742383"
         sodipodi:arg1="0.82704074"
         sodipodi:r2="52.585148"
         sodipodi:r1="64.998817"
         sodipodi:cy="635.24408"
         sodipodi:cx="265.96063"
         sodipodi:sides="3"
         id="path3906"
         style="fill:none;stroke:#0000ff;stroke-width:9.55373955;stroke-linecap:butt;stroke-linejoin:miter;stroke-miterlimit:4;stroke-opacity:1;stroke-dasharray:none"
         sodipodi:type="star" />
      <path
         transform="matrix(-0.07740089,-0.08289747,-0.04353581,0.07464723,210.42553,411.69104)"
         d="m 394.15746,468.77951 c 0,49.66649 -49.25748,89.92913 -110.01967,89.92913 -60.76219,0 -110.01968,-40.26264 -110.01968,-89.92913 0,-49.66649 49.25749,-89.92913 110.01968,-89.92913 60.76219,0 110.01967,40.26264 110.01967,89.92913 z"
         sodipodi:ry="89.929131"
         sodipodi:rx="110.01968"
         sodipodi:cy="468.77951"
         sodipodi:cx="284.13779"
         id="path3908"
         style="fill:#008000;fill-rule:evenodd;stroke:#0000ff;stroke-width:10.34907341;stroke-linecap:butt;stroke-linejoin:miter;stroke-miterlimit:4;stroke-opacity:1;stroke-dasharray:none"
         sodipodi:type="arc" />
      <path
         transform="matrix(-0.07738637,-0.08288191,-0.04734417,0.0811771,212.105,409.18947)"
         d="m 392.24408,454.42914 c 0,39.62752 -47.97251,71.75197 -107.1496,71.75197 -59.17709,0 -107.14959,-32.12445 -107.14959,-71.75197 0,-39.62752 47.9725,-71.75197 107.14959,-71.75197 59.17709,0 107.1496,32.12445 107.1496,71.75197 z"
         sodipodi:ry="71.751968"
         sodipodi:rx="107.1496"
         sodipodi:cy="454.42914"
         sodipodi:cx="285.09448"
         id="path3910"
         style="fill:#f9f9f9;fill-rule:evenodd;stroke:#0000ff;stroke-width:9.9250412;stroke-linecap:butt;stroke-linejoin:miter;stroke-miterlimit:4;stroke-opacity:1;stroke-dasharray:none"
         sodipodi:type="arc" />
      <path
         id="path3912"
         d="m 176.66999,417.00377 -9.64792,-4.21888"
         style="fill:none;stroke:#0000ff;stroke-width:1.00267363;stroke-linecap:butt;stroke-linejoin:miter;stroke-miterlimit:4;stroke-opacity:1;stroke-dasharray:none" />
      <path
         id="path3914"
         d="M 170.07858,432.06975 176.4255,417.0793"
         style="fill:none;stroke:#0000ff;stroke-width:1.00267363;stroke-linecap:butt;stroke-linejoin:miter;stroke-miterlimit:4;stroke-opacity:1;stroke-dasharray:none" />
      <path
         id="path3916"
         d="m 177.15547,425.94725 -0.59626,-9.17126"
         style="fill:none;stroke:#0000ff;stroke-width:1.00267363;stroke-linecap:butt;stroke-linejoin:miter;stroke-miterlimit:4;stroke-opacity:1;stroke-dasharray:none" />
      <path
         id="path3918"
         d="m 159.40767,419.0457 17.02739,-2.09505"
         style="fill:none;stroke:#0000ff;stroke-width:1.00267363;stroke-linecap:butt;stroke-linejoin:miter;stroke-miterlimit:4;stroke-opacity:1;stroke-dasharray:none" />
    </g>
    <g
       id="g3936"
       transform="translate(515.4069,87.528653)">
      <path
         transform="matrix(0.07502854,-0.04104663,0.02293852,0.13425748,132.263,358.89638)"
         d="m 309.96851,683.07872 -107.43783,-33.64003 82.85203,-76.22387 24.5858,109.8639 z"
         inkscape:randomized="0"
         inkscape:rounded="0"
         inkscape:flatsided="true"
         sodipodi:arg2="1.8742383"
         sodipodi:arg1="0.82704074"
         sodipodi:r2="52.585148"
         sodipodi:r1="64.998817"
         sodipodi:cy="635.24408"
         sodipodi:cx="265.96063"
         sodipodi:sides="3"
         id="path3938"
         style="fill:none;stroke:#0000ff;stroke-width:9.55373955;stroke-linecap:butt;stroke-linejoin:miter;stroke-miterlimit:4;stroke-opacity:1;stroke-dasharray:none"
         sodipodi:type="star" />
      <path
         transform="matrix(-0.07740089,-0.08289747,-0.04353581,0.07464723,210.42553,411.69104)"
         d="m 394.15746,468.77951 c 0,49.66649 -49.25748,89.92913 -110.01967,89.92913 -60.76219,0 -110.01968,-40.26264 -110.01968,-89.92913 0,-49.66649 49.25749,-89.92913 110.01968,-89.92913 60.76219,0 110.01967,40.26264 110.01967,89.92913 z"
         sodipodi:ry="89.929131"
         sodipodi:rx="110.01968"
         sodipodi:cy="468.77951"
         sodipodi:cx="284.13779"
         id="path3940"
         style="fill:#008000;fill-rule:evenodd;stroke:#0000ff;stroke-width:10.34907341;stroke-linecap:butt;stroke-linejoin:miter;stroke-miterlimit:4;stroke-opacity:1;stroke-dasharray:none"
         sodipodi:type="arc" />
      <path
         transform="matrix(-0.07738637,-0.08288191,-0.04734417,0.0811771,212.105,409.18947)"
         d="m 392.24408,454.42914 c 0,39.62752 -47.97251,71.75197 -107.1496,71.75197 -59.17709,0 -107.14959,-32.12445 -107.14959,-71.75197 0,-39.62752 47.9725,-71.75197 107.14959,-71.75197 59.17709,0 107.1496,32.12445 107.1496,71.75197 z"
         sodipodi:ry="71.751968"
         sodipodi:rx="107.1496"
         sodipodi:cy="454.42914"
         sodipodi:cx="285.09448"
         id="path3942"
         style="fill:#f9f9f9;fill-rule:evenodd;stroke:#0000ff;stroke-width:9.9250412;stroke-linecap:butt;stroke-linejoin:miter;stroke-miterlimit:4;stroke-opacity:1;stroke-dasharray:none"
         sodipodi:type="arc" />
      <path
         id="path3944"
         d="m 176.66999,417.00377 -9.64792,-4.21888"
         style="fill:none;stroke:#0000ff;stroke-width:1.00267363;stroke-linecap:butt;stroke-linejoin:miter;stroke-miterlimit:4;stroke-opacity:1;stroke-dasharray:none" />
      <path
         id="path3946"
         d="M 170.07858,432.06975 176.4255,417.0793"
         style="fill:none;stroke:#0000ff;stroke-width:1.00267363;stroke-linecap:butt;stroke-linejoin:miter;stroke-miterlimit:4;stroke-opacity:1;stroke-dasharray:none" />
      <path
         id="path3948"
         d="m 177.15547,425.94725 -0.59626,-9.17126"
         style="fill:none;stroke:#0000ff;stroke-width:1.00267363;stroke-linecap:butt;stroke-linejoin:miter;stroke-miterlimit:4;stroke-opacity:1;stroke-dasharray:none" />
      <path
         id="path3950"
         d="m 159.40767,419.0457 17.02739,-2.09505"
         style="fill:none;stroke:#0000ff;stroke-width:1.00267363;stroke-linecap:butt;stroke-linejoin:miter;stroke-miterlimit:4;stroke-opacity:1;stroke-dasharray:none" />
    </g>
    <g
       transform="translate(373.48444,87.528653)"
       id="g3952">
      <path
         sodipodi:type="star"
         style="fill:none;stroke:#0000ff;stroke-width:9.55373955;stroke-linecap:butt;stroke-linejoin:miter;stroke-miterlimit:4;stroke-opacity:1;stroke-dasharray:none"
         id="path3954"
         sodipodi:sides="3"
         sodipodi:cx="265.96063"
         sodipodi:cy="635.24408"
         sodipodi:r1="64.998817"
         sodipodi:r2="52.585148"
         sodipodi:arg1="0.82704074"
         sodipodi:arg2="1.8742383"
         inkscape:flatsided="true"
         inkscape:rounded="0"
         inkscape:randomized="0"
         d="m 309.96851,683.07872 -107.43783,-33.64003 82.85203,-76.22387 24.5858,109.8639 z"
         transform="matrix(0.07502854,-0.04104663,0.02293852,0.13425748,132.263,358.89638)" />
      <path
         sodipodi:type="arc"
         style="fill:#008000;fill-rule:evenodd;stroke:#0000ff;stroke-width:10.34907341;stroke-linecap:butt;stroke-linejoin:miter;stroke-miterlimit:4;stroke-opacity:1;stroke-dasharray:none"
         id="path3956"
         sodipodi:cx="284.13779"
         sodipodi:cy="468.77951"
         sodipodi:rx="110.01968"
         sodipodi:ry="89.929131"
         d="m 394.15746,468.77951 c 0,49.66649 -49.25748,89.92913 -110.01967,89.92913 -60.76219,0 -110.01968,-40.26264 -110.01968,-89.92913 0,-49.66649 49.25749,-89.92913 110.01968,-89.92913 60.76219,0 110.01967,40.26264 110.01967,89.92913 z"
         transform="matrix(-0.07740089,-0.08289747,-0.04353581,0.07464723,210.42553,411.69104)" />
      <path
         sodipodi:type="arc"
         style="fill:#f9f9f9;fill-rule:evenodd;stroke:#0000ff;stroke-width:9.9250412;stroke-linecap:butt;stroke-linejoin:miter;stroke-miterlimit:4;stroke-opacity:1;stroke-dasharray:none"
         id="path3958"
         sodipodi:cx="285.09448"
         sodipodi:cy="454.42914"
         sodipodi:rx="107.1496"
         sodipodi:ry="71.751968"
         d="m 392.24408,454.42914 c 0,39.62752 -47.97251,71.75197 -107.1496,71.75197 -59.17709,0 -107.14959,-32.12445 -107.14959,-71.75197 0,-39.62752 47.9725,-71.75197 107.14959,-71.75197 59.17709,0 107.1496,32.12445 107.1496,71.75197 z"
         transform="matrix(-0.07738637,-0.08288191,-0.04734417,0.0811771,212.105,409.18947)" />
      <path
         style="fill:none;stroke:#0000ff;stroke-width:1.00267363;stroke-linecap:butt;stroke-linejoin:miter;stroke-miterlimit:4;stroke-opacity:1;stroke-dasharray:none"
         d="m 176.66999,417.00377 -9.64792,-4.21888"
         id="path3960" />
      <path
         style="fill:none;stroke:#0000ff;stroke-width:1.00267363;stroke-linecap:butt;stroke-linejoin:miter;stroke-miterlimit:4;stroke-opacity:1;stroke-dasharray:none"
         d="M 170.07858,432.06975 176.4255,417.0793"
         id="path3962" />
      <path
         style="fill:none;stroke:#0000ff;stroke-width:1.00267363;stroke-linecap:butt;stroke-linejoin:miter;stroke-miterlimit:4;stroke-opacity:1;stroke-dasharray:none"
         d="m 177.15547,425.94725 -0.59626,-9.17126"
         id="path3964" />
      <path
         style="fill:none;stroke:#0000ff;stroke-width:1.00267363;stroke-linecap:butt;stroke-linejoin:miter;stroke-miterlimit:4;stroke-opacity:1;stroke-dasharray:none"
         d="m 159.40767,419.0457 17.02739,-2.09505"
         id="path3966" />
    </g>
    <path
       style="fill:#008000;stroke:#008000;stroke-width:2.41653543;stroke-linecap:butt;stroke-linejoin:miter;stroke-opacity:1;stroke-miterlimit:4;stroke-dasharray:none"
       d="m 237.06874,504.55627 460.96699,0"
       id="path2912" />
    <path
       id="path2914"
       d="m 326.38109,322.63894 372.4778,186.03311"
       style="fill:#008000;stroke:#008000;stroke-width:2.41653543;stroke-linecap:butt;stroke-linejoin:miter;stroke-opacity:1;stroke-miterlimit:4;stroke-dasharray:none"
       sodipodi:nodetypes="cc" />
    <path
       style="fill:none;stroke:#000000;stroke-width:1px;stroke-linecap:butt;stroke-linejoin:miter;stroke-opacity:1"
       d="m 620.24755,504.55628 c 13.99364,-28.39886 13.58207,-28.39886 13.58207,-28.39886"
       id="path3701" />
    <path
       style="fill:none;stroke:#000000;stroke-width:1px;stroke-linecap:butt;stroke-linejoin:miter;stroke-opacity:1"
       d="m 550.27935,503.73312 c 28.39886,-54.32825 28.39886,-54.32825 28.39886,-54.32825"
       id="path3703" />
  </g>
</svg>
