<?xml version="1.0" encoding="UTF-8" standalone="no"?>
<!-- Created with Inkscape (http://www.inkscape.org/) -->

<svg
   xmlns:dc="http://purl.org/dc/elements/1.1/"
   xmlns:cc="http://creativecommons.org/ns#"
   xmlns:rdf="http://www.w3.org/1999/02/22-rdf-syntax-ns#"
   xmlns:svg="http://www.w3.org/2000/svg"
   xmlns="http://www.w3.org/2000/svg"
   xmlns:sodipodi="http://sodipodi.sourceforge.net/DTD/sodipodi-0.dtd"
   xmlns:inkscape="http://www.inkscape.org/namespaces/inkscape"
   width="297mm"
   height="210mm"
   id="svg2862"
   version="1.1"
   inkscape:version="0.47 r22583"
   sodipodi:docname="dish4-with-delays-outside.svg"
   inkscape:export-filename="/home/oms/doc/Timba/Presentations/OMS/Generic/dish4.png"
   inkscape:export-xdpi="300"
   inkscape:export-ydpi="300">
  <defs
     id="defs2864">
    <inkscape:perspective
       sodipodi:type="inkscape:persp3d"
       inkscape:vp_x="0 : 372.04724 : 1"
       inkscape:vp_y="0 : 1000 : 0"
       inkscape:vp_z="1052.3622 : 372.04724 : 1"
       inkscape:persp3d-origin="526.18109 : 248.03149 : 1"
       id="perspective2871" />
  </defs>
  <sodipodi:namedview
     inkscape:document-units="mm"
     pagecolor="#ffffff"
     bordercolor="#666666"
     borderopacity="1.0"
     inkscape:pageopacity="0.0"
     inkscape:pageshadow="2"
     inkscape:zoom="1.7366335"
     inkscape:cx="522.5531"
     inkscape:cy="412.33396"
     inkscape:current-layer="layer1"
     id="namedview2866"
     showgrid="true"
     inkscape:window-width="1361"
     inkscape:window-height="872"
     inkscape:window-x="1667"
     inkscape:window-y="76"
     inkscape:window-maximized="0"
     inkscape:snap-grids="false">
    <inkscape:grid
       type="xygrid"
       id="grid2894" />
  </sodipodi:namedview>
  <metadata
     id="metadata2868">
    <rdf:RDF>
      <cc:Work
         rdf:about="">
        <dc:format>image/svg+xml</dc:format>
        <dc:type
           rdf:resource="http://purl.org/dc/dcmitype/StillImage" />
        <dc:title></dc:title>
      </cc:Work>
    </rdf:RDF>
  </metadata>
  <g
     inkscape:label="Layer 1"
     inkscape:groupmode="layer"
     id="layer1">
    <path
       sodipodi:type="arc"
       style="fill:none;stroke:#0000ff;stroke-width:5;stroke-linecap:round;stroke-miterlimit:4;stroke-opacity:1;stroke-dasharray:30,10;stroke-dashoffset:14.5"
       id="path3680"
       sodipodi:cx="515"
       sodipodi:cy="299.09448"
       sodipodi:rx="145"
       sodipodi:ry="145"
       d="M 610.91608,407.83778 A 145,145 0 0 1 386.42272,232.06551"
       transform="translate(86.520244,38.572853)"
       sodipodi:start="0.84799221"
       sodipodi:end="3.6221447"
       sodipodi:open="true" />
    <path
       style="fill:none;stroke:#008000;stroke-width:0.9992126;stroke-linecap:butt;stroke-linejoin:miter;stroke-opacity:1;stroke-miterlimit:4;stroke-dasharray:2.9976378,0.9992126;stroke-dashoffset:0"
       d="m 660,189.09448 -195,195 0,0"
       id="path3689"
       sodipodi:nodetypes="ccc" />
    <path
       style="fill:none;stroke:#008000;stroke-width:0.9992126;stroke-linecap:butt;stroke-linejoin:miter;stroke-opacity:1;stroke-miterlimit:4;stroke-dasharray:2.9976378,0.9992126;stroke-dashoffset:0"
       d="m 750,279.09448 -195,195"
       id="path3691"
       sodipodi:nodetypes="cc" />
    <path
       style="fill:#808080;stroke:#808080;stroke-width:3.75000000000000000;stroke-linecap:butt;stroke-linejoin:miter;stroke-opacity:1;stroke-miterlimit:4;stroke-dasharray:none"
       d="m 507.8792,453.30197 -19.00228,81.19157 37.42874,-0.57583 -18.42646,-80.61574 z"
       id="path3699"
       sodipodi:nodetypes="cccc" />
    <path
       style="fill:#1a1a1a;stroke:#000000;stroke-width:3.25;stroke-linecap:butt;stroke-linejoin:miter;stroke-opacity:1;stroke-miterlimit:4;stroke-dasharray:none"
       d="m 700.20534,534.49354 -460.66141,0"
       id="path3697" />
    <text
       xml:space="preserve"
       style="font-size:40px;font-style:normal;font-weight:normal;fill:#0000ff;fill-opacity:1;stroke:none;font-family:Bitstream Vera Sans"
       x="669.14642"
       y="588.0249"
       id="text4668"><tspan
         sodipodi:role="line"
         id="tspan4670"
         x="669.14642"
         y="588.0249">+</tspan></text>
    <path
       style="fill:none;stroke:#008000;stroke-width:1.625;stroke-linecap:butt;stroke-linejoin:miter;stroke-opacity:1;stroke-miterlimit:4;stroke-dasharray:none"
       d="m 571.22014,516.64291 -105.95213,-132.44014 0,0.57582 0,-1.15165"
       id="path4689"
       sodipodi:nodetypes="cccc" />
    <path
       style="fill:none;stroke:#008000;stroke-width:1.625;stroke-linecap:butt;stroke-linejoin:miter;stroke-opacity:1;stroke-miterlimit:4;stroke-dasharray:none"
       d="m 553.94533,472.88008 96.16306,80.61575"
       id="path4701"
       sodipodi:nodetypes="cc" />
    <path
       style="fill:none;stroke:#008000;stroke-width:1px;stroke-linecap:butt;stroke-linejoin:miter;stroke-opacity:1"
       d="m 649.76508,553.1236 c 0.19194,-0.19195 2.99658,-0.62885 3.22244,-0.77942 0.35711,-0.23808 0.79454,-0.33775 1.15165,-0.57583 0.45172,-0.30114 0.66608,-0.90886 1.15166,-1.15165 0.17167,-0.0858 0.40414,0.0858 0.57582,0 0.24279,-0.1214 0.33304,-0.45443 0.57583,-0.57583 0.36526,-0.18263 2.50506,0.18704 2.87913,0 0.24279,-0.12139 0.33304,-0.45443 0.57583,-0.57582 0.47656,-0.23829 0.96437,0.20125 1.15165,0.57582 0.0321,0.0643 0.0321,2.81486 0,2.87914 -0.12139,0.24279 -0.48998,0.31831 -0.57582,0.57582 0,2.62133 0.27144,0.0329 -0.57583,1.72748 -0.0858,0.17168 0.13572,0.44011 0,0.57583 -0.13572,0.13572 -0.4401,-0.13572 -0.57583,0 -1.1914,1.19141 1.82063,-0.0466 -0.57582,1.15165 -0.17168,0.0858 -0.44011,-0.13572 -0.57583,0 -0.13572,0.13573 0.0858,0.40415 0,0.57583 -0.1214,0.24279 -0.45443,0.33304 -0.57583,0.57583 -0.0858,0.17168 0.13573,0.4401 0,0.57582 -0.28791,0.28792 -1.43956,-0.28791 -1.72748,0 -1.1914,1.19141 1.82063,-0.0466 -0.57582,1.15166 -0.17168,0.0858 -0.40415,-0.0858 -0.57583,0 -2.63533,1.31766 2.44347,-0.23867 -1.72748,1.15165 -0.18209,0.0607 -0.40415,-0.0858 -0.57583,0 -0.24279,0.1214 -0.33303,0.45443 -0.57582,0.57583 -0.36192,0.18096 -1.94139,-0.18096 -2.30331,0 -0.24279,0.12139 -0.33304,0.45443 -0.57583,0.57582 -0.17168,0.0858 -0.38388,0 -0.57583,0 -0.19194,0 -0.38388,0 -0.57582,0 -0.13966,0 -1.70896,-0.0185 -1.72748,0 -0.13573,0.13573 0.13572,0.44011 0,0.57583 -0.13573,0.13572 -0.44011,-0.13572 -0.57583,0 -0.13572,0.13572 0,0.38389 0,0.57583 0,0.30111 -0.0757,2.1519 0,2.3033 0.1214,0.24279 0.33304,0.45444 0.57583,0.57583 0.17168,0.0858 0.38388,0 0.57582,0 0.19195,0 0.38389,0 0.57583,0 0.95971,0 1.91942,0 2.87913,0 1.66478,0 -0.33139,-0.6573 1.15166,-1.15165 0.26337,-0.0878 2.04708,0.12811 2.30331,0 1.4231,-0.71155 -0.19877,-0.57583 1.15165,-0.57583 0.30111,0 2.1519,0.0757 2.30331,0 0.24279,-0.12139 0.33303,-0.45443 0.57582,-0.57583 0.17168,-0.0858 0.38389,0 0.57583,0 0.38388,0 0.78747,0.1214 1.15165,0 0.25752,-0.0858 0.33304,-0.45443 0.57583,-0.57582 0.17168,-0.0858 0.40415,0.0858 0.57583,0 0.24279,-0.1214 0.33303,-0.45443 0.57582,-0.57583 0.17168,-0.0858 0.40415,0.0858 0.57583,0 0.24279,-0.12139 0.31831,-0.48999 0.57583,-0.57583 0.36418,-0.12139 0.77923,0.0931 1.15165,0 2.40912,1.04274 0.66607,-0.90886 1.15165,-1.15165 0.46066,-0.23033 1.26682,0.23033 1.72748,0 0.24279,-0.12139 0.33304,-0.45443 0.57583,-0.57583 0.34336,-0.17167 0.8083,0.17168 1.15165,0 0.24279,-0.12139 0.38389,-0.38388 0.57583,-0.57582 0.19194,-0.19195 0.33304,-0.45443 0.57583,-0.57583 0.34335,-0.17168 0.80829,0.17168 1.15165,0 0.24279,-0.12139 0.33304,-0.45443 0.57583,-0.57583 0.17524,-0.0876 1.46815,0 1.72748,0 0.19194,0 0.4401,-0.13572 0.57582,0 0.0462,0.0462 0,2.4259 0,2.87914 0,1.35041 -0.13572,-0.27145 0.57583,1.15165 0.0858,0.17168 0,0.38389 0,0.57583 0,0.19194 0,0.38388 0,0.57582 0,0.19195 0.13572,0.44011 0,0.57583 -0.11772,0.11772 -1.49917,-0.11415 -1.72748,0 -0.24279,0.1214 -0.33304,0.45443 -0.57583,0.57583 -0.17167,0.0858 -0.4401,-0.13573 -0.57582,0 -0.13573,0.13572 0.13572,0.4401 0,0.57582 -0.13573,0.13573 -0.40415,-0.0858 -0.57583,0 -0.24279,0.1214 -0.33304,0.45444 -0.57583,0.57583 -0.17167,0.0858 -0.4401,-0.13572 -0.57582,0 -0.13573,0.13572 0.13572,0.4401 0,0.57583 -0.27145,0.27145 -0.8083,-0.17168 -1.15166,0 -2.39645,1.19822 0.61558,-0.0398 -0.57582,1.15165 -0.13573,0.13572 -0.40415,-0.0858 -0.57583,0 -0.24279,0.1214 -0.33304,0.45443 -0.57583,0.57583 -0.17167,0.0858 -0.40414,-0.0858 -0.57582,0 -0.24279,0.12139 -0.31831,0.48999 -0.57583,0.57582 -0.26338,0.0878 -2.04708,-0.12811 -2.30331,0 -0.24279,0.1214 -0.33303,0.45444 -0.57582,0.57583 -0.22831,0.11416 -1.60976,-0.11772 -1.72748,0 -0.13573,0.13573 0.13572,0.4401 0,0.57583 -0.38324,0.38323 -0.76842,-0.38324 -1.15166,0 -0.20684,0.20684 0.18627,1.93077 0,2.30331 -0.19194,0.38388 -1.15165,-0.57583 -0.57582,0.57582 0.39963,0.79927 1.02458,0.57583 1.72748,0.57583 0.19194,0 0.4401,-0.13573 0.57582,0 0.13573,0.13572 -0.13572,0.4401 0,0.57583 0.13573,0.13572 0.38389,0 0.57583,0 0.19194,0 0.38388,0 0.57583,0 0.19617,0 1.99166,0.10388 2.3033,0 0.40717,-0.13573 0.74449,-0.44011 1.15166,-0.57583 0.18209,-0.0607 0.40415,0.0858 0.57582,0 0.24279,-0.1214 0.31831,-0.48999 0.57583,-0.57583 0.36419,-0.12139 0.76777,0 1.15165,0 0.19195,0 0.40415,0.0858 0.57583,0 0.24279,-0.12139 0.33304,-0.45443 0.57583,-0.57582 0.17168,-0.0858 0.38388,0 0.57582,0 0.38389,-0.19195 0.79454,-0.33776 1.15166,-0.57583 0.22586,-0.15057 0.45443,-0.33304 0.57582,-0.57583 0.0858,-0.17168 -0.17167,-0.48999 0,-0.57583 0.34336,-0.17167 0.78747,0.1214 1.15166,0 0.49412,-0.1647 1.06347,-1.46292 1.15165,-1.72748 0.0607,-0.18209 -0.13572,-0.4401 0,-0.57582 0.13572,-0.13573 0.40415,0.0858 0.57583,0 2.39645,-1.19823 -0.61558,0.0398 0.57582,-1.15166 0.27145,-0.27144 0.88021,0.27145 1.15166,0 0.13572,-0.13572 -0.13573,-0.4401 0,-0.57582 0.27145,-0.27145 0.8802,0.27145 1.15165,0 0.13573,-0.13573 -0.13572,-0.44011 0,-0.57583 0.13573,-0.13572 0.38389,0 0.57583,0 0.19194,0 0.40415,-0.0858 0.57583,0 0.24278,0.1214 0.33303,0.45443 0.57582,0.57583 0.17168,0.0858 0.4401,-0.13573 0.57583,0 0.13572,0.13572 0.19194,0.57582 0,0.57582 -0.27145,0 -0.76777,-0.76776 -0.57583,-0.57582 0.38389,0.38388 0.85051,0.69994 1.15166,1.15165 0.10647,0.15971 -0.13573,0.4401 0,0.57583 0.13572,0.13572 0.38388,0 0.57582,0 0,0.19194 -0.13572,0.4401 0,0.57582 0.13573,0.13573 0.44011,-0.13572 0.57583,0 0.28791,0.28792 -0.28791,1.43957 0,1.72748 0.76777,0.76777 0.57583,-0.95971 0.57583,0.57583 0,0.19194 0,0.38389 0,0.57583 0,0.19194 -0.13573,0.4401 0,0.57583 0.13572,0.13572 0.38388,0 0.57582,0 0.19194,0 0.38389,0 0.57583,0 0.13965,0 1.70896,-0.0185 1.72748,0 0.13572,0.13572 -0.13572,0.4401 0,0.57582 1.19141,1.19141 -0.0466,-1.82062 1.15165,0.57583 0.0858,0.17168 -0.0858,0.40415 0,0.57583 0.1214,0.24279 0.45443,0.33303 0.57583,0.57582 0.23828,0.47656 -0.20126,0.96437 -0.57583,1.15166 -0.17168,0.0858 -0.38388,0 -0.57582,0"
       id="path2888"
       sodipodi:nodetypes="cssssssssscssssssssssssssssssssssssssssssssssssssscsssssssssssssssssssssssssssssssssssssssssssssssscsssssssssssssssssssscssssssssssssssc" />
    <path
       style="fill:none;stroke:#008000;stroke-width:1px;stroke-linecap:butt;stroke-linejoin:miter;stroke-opacity:1"
       d="m 570.6443,518.3704 c 0,0.19194 0.32137,-1.83529 0.40717,-1.66361 0.12139,0.24279 0.0473,2.57248 0.16865,2.81527 0.17168,0.34335 -0.17168,0.80829 0,1.15165 0.1214,0.24279 0.45443,0.33304 0.57583,0.57583 0.18096,0.36192 -0.18096,1.94138 0,2.3033 0.12139,0.24279 0.45443,0.33304 0.57583,0.57583 0.0858,0.17168 -0.13573,0.4401 0,0.57583 0.13572,0.13572 0.4401,-0.13573 0.57582,0 0.13573,0.13572 -0.13572,0.4401 0,0.57582 0.13573,0.13573 0.44011,-0.13572 0.57583,0 0.13572,0.13573 -0.13572,0.44011 0,0.57583 0.13572,0.13572 0.38388,0 0.57583,0 0.38388,0 0.80829,-0.17168 1.15165,0 0.17168,0.0858 -0.13572,0.4401 0,0.57583 0.20684,0.20684 1.93077,-0.18627 2.30331,0 0.17167,0.0858 -0.13573,0.4401 0,0.57582 0.13572,0.13573 0.38388,0 0.57582,0 0.38389,0 0.76777,0 1.15166,0 0.68327,0 4.04776,-0.11177 4.60661,0 1.04221,-0.34706 1.07094,0.93281 1.72748,1.15166 0.36419,0.12139 0.77923,-0.0931 1.15165,0 0.83277,0.20819 1.47055,0.94346 2.30331,1.15165 0.28054,0.0701 1.99883,-0.15224 2.30331,0 0.24279,0.12139 0.38388,0.38388 0.57582,0.57583 0.38389,0 0.78747,-0.1214 1.15166,0 0.51503,0.17167 0.66607,0.90886 1.15165,1.15165 0.17168,0.0858 0.38389,0 0.57583,0 0.38388,0.38388 0.69994,0.85051 1.15165,1.15165 0.15971,0.10647 0.40415,-0.0858 0.57583,0 0.24279,0.1214 0.34997,0.42526 0.57583,0.57583 0.35711,0.23808 0.84816,0.27234 1.15165,0.57583 0.13572,0.13572 -0.0607,0.39373 0,0.57582 0.13572,0.40717 0.33775,0.79454 0.57583,1.15166 0.30114,0.45171 0.90886,0.66607 1.15165,1.15165 0.17168,0.34336 -0.27145,0.88021 0,1.15165 0.13572,0.13573 0.4401,-0.13572 0.57583,0 0.13572,0.13573 0,0.38389 0,0.57583 0,0.19194 0,0.38389 0,0.57583 0,0.95971 0,1.91942 0,2.87913 0,0.19194 0,0.38389 0,0.57583 0,0.19194 -0.0858,0.40415 0,0.57582 0.12139,0.24279 0.45443,0.33304 0.57582,0.57583 0.0858,0.17168 -0.0858,0.40415 0,0.57583 0.1214,0.24279 0.38389,0.38388 0.57583,0.57583 0.19194,0.19194 0.33304,0.45443 0.57583,0.57582 0.17167,0.0858 0.40414,-0.0858 0.57582,0 0.24279,0.1214 0.38389,0.38389 0.57583,0.57583 0.19194,0.19194 0.45443,0.33304 0.57583,0.57583 0.0858,0.17167 -0.13573,0.4401 0,0.57582 0.13572,0.13573 0.40414,-0.0858 0.57582,0 0.24279,0.1214 0.33304,0.45443 0.57583,0.57583 0.34336,0.17168 0.88021,-0.27145 1.15165,0 0.13573,0.13572 -0.13572,0.4401 0,0.57583 0.13573,0.13572 0.38389,0 0.57583,0 0.19194,0 0.38388,0 0.57583,0 1.15165,0 2.3033,0 3.45496,0 0.38388,0 0.77923,-0.0931 1.15165,0 0.41638,0.10409 0.73527,0.47173 1.15165,0.57582 0.37243,0.0931 0.76777,0 1.15166,0 1.15165,0 2.3033,0 3.45496,0 0.57582,0 1.16283,-0.11293 1.72748,0 0.42086,0.0842 0.74448,0.44011 1.15165,0.57583 0.18209,0.0607 0.38389,0 0.57583,0 0.22515,0 3.78243,-0.0828 4.03079,0 0.25751,0.0858 0.33303,0.45443 0.57582,0.57583 0.36192,0.18096 1.94139,-0.18096 2.30331,0 0.24279,0.12139 0.33304,0.45443 0.57583,0.57582 0.17167,0.0858 0.40414,-0.0858 0.57582,0 0.4608,0.2304 0.69086,0.92126 1.15166,1.15166 0.79427,0.39713 0.51506,-0.69736 1.15165,0.57582 0.0858,0.17168 -0.0858,0.40415 0,0.57583 0.12139,0.24279 0.33304,0.45443 0.57583,0.57583 0.17167,0.0858 0.51513,-0.1821 0.57582,0 0.1821,0.54627 -0.0947,1.15948 0,1.72748 0.72724,4.36344 0.11731,0.23461 1.15166,2.3033 0.0238,0.0477 0.0247,1.65339 0,1.72748 -0.13573,0.40717 -0.44011,0.74449 -0.57583,1.15166 -0.0607,0.18209 0.13572,0.4401 0,0.57582 -0.13572,0.13573 -0.4401,-0.13572 -0.57583,0 -0.13572,0.13573 0.13573,0.44011 0,0.57583 -0.13572,0.13572 -0.4401,-0.13572 -0.57582,0 -0.13573,0.13572 0.13572,0.4401 0,0.57583 -0.13573,0.13572 -0.44011,-0.13573 -0.57583,0 -0.13572,0.13572 0.13572,0.4401 0,0.57582 -1.19141,1.19141 0.0466,-1.82062 -1.15165,0.57583 -0.23033,0.46066 0.23033,1.26682 0,1.72748 -0.1214,0.24279 -0.45444,0.33304 -0.57583,0.57583 -0.0858,0.17168 0.13572,0.4401 0,0.57582 -0.13572,0.13573 -0.4401,-0.13572 -0.57583,0 -0.11772,0.11772 0.11416,1.49917 0,1.72748 -0.12139,0.24279 -0.45443,0.33304 -0.57582,0.57583 -0.0151,0.0301 -0.0151,1.69736 0,1.72748 0.12139,0.24279 0.45443,0.33304 0.57582,0.57583 0.0858,0.17168 -0.13572,0.4401 0,0.57582 0.13573,0.13573 0.44011,-0.13572 0.57583,0 0.13572,0.13573 -0.13572,0.44011 0,0.57583 0.13572,0.13573 0.40415,-0.0858 0.57583,0 0.24279,0.1214 0.33303,0.45443 0.57582,0.57583 0.34336,0.17168 0.88021,-0.27145 1.15166,0 0.27144,0.27145 -0.27145,0.8802 0,1.15165 0.13572,0.13573 0.4401,-0.13572 0.57582,0 0.13573,0.13573 -0.0858,0.40415 0,0.57583 0.3455,0.69099 1.38199,1.03649 1.72748,1.72748 0.11416,0.22831 -0.11772,1.60976 0,1.72748 0.13573,0.13572 0.44011,-0.13572 0.57583,0 0.13572,0.13572 -0.13572,0.4401 0,0.57583 0.13572,0.13572 0.38388,0 0.57583,0 0.19194,0 0.38388,0 0.57582,0 0.38389,0 0.76777,0 1.15166,0 0.38388,0 0.78747,0.12139 1.15165,0 0.25752,-0.0858 0.31831,-0.48999 0.57583,-0.57583 0.36418,-0.1214 0.77923,0.0931 1.15165,0 0.41638,-0.1041 0.73527,-0.47173 1.15165,-0.57583 0.40345,-0.10086 3.24647,0 3.45496,0 0.66654,0 2.36505,-0.12852 2.87914,0 0.41638,0.1041 0.74448,0.44011 1.15165,0.57583 0.18209,0.0607 0.4401,-0.13572 0.57583,0 0.13572,0.13572 -0.0858,0.40415 0,0.57583 0.24279,0.48558 0.97997,0.63661 1.15165,1.15165 0.1214,0.36418 -0.0931,0.77923 0,1.15165 0.96966,3.87862 0.009,0.009 1.15166,1.15166 0.30348,0.30348 0.33775,0.79454 0.57582,1.15165 0.15057,0.22586 0.48999,0.31831 0.57583,0.57583 0.12139,0.36418 0,0.76777 0,1.15165 0,0.19194 -0.0858,0.40415 0,0.57583 0.12139,0.24279 0.45443,0.33303 0.57583,0.57582 0.17167,0.34336 -0.17168,0.8083 0,1.15166 0.12139,0.24279 0.45443,0.33303 0.57582,0.57582 0.17168,0.34336 -0.27145,0.88021 0,1.15166 0.13573,0.13572 0.38389,0 0.57583,0 0.67209,0 3.00572,-0.11231 3.45496,0 0.41638,0.10409 0.74448,0.4401 1.15165,0.57582 0.1821,0.0607 0.38389,0 0.57583,0 0.57583,0 1.15165,0 1.72748,0 1.91942,0 3.83884,0 5.75827,0 0.38388,0 0.76777,0 1.15165,0 0.19194,0 0.4401,0.13573 0.57583,0 0.13572,-0.13572 -0.13573,-0.4401 0,-0.57582 0.13572,-0.13573 0.38388,0 0.57582,0 0.19195,0 0.38389,0 0.57583,0 0.76777,0 1.53554,0 2.30331,0 0.19194,0 0.38388,0 0.57582,0 0.19195,0 0.40415,0.0858 0.57583,0 0.24279,-0.1214 0.33304,-0.45443 0.57583,-0.57583 0.17168,-0.0858 0.38388,0 0.57582,0 0.19195,0 0.38389,0 0.57583,0 0.95971,0 1.91942,0 2.87914,0 0.19194,0 0.38388,0 0.57582,0 0.19194,0 0.40415,0.0858 0.57583,0 0.69099,-0.3455 1.03649,-1.38198 1.72748,-1.72748 0.17168,-0.0858 0.4401,0.13572 0.57583,0 0.13572,-0.13572 -0.0858,-0.40415 0,-0.57583 0.12139,-0.24279 0.45443,-0.33303 0.57582,-0.57582 0.0858,-0.17168 0,-0.38389 0,-0.57583 0,-0.19194 0,-0.38388 0,-0.57583 0,-1.15165 0,-2.3033 0,-3.45496 0,-0.19194 0,-0.38388 0,-0.57582 0,-0.19195 -0.0858,-0.40415 0,-0.57583 0.63659,-1.27319 0.35739,-0.17869 1.15166,-0.57583 1.16459,-0.5823 0.18465,-1.3363 0.57582,-1.72748 0.76777,-0.76777 0.57583,0.95971 0.57583,-0.57582"
       id="path2890"
       sodipodi:nodetypes="csssssssssssssssssscsssscsscsssssssssssssssssssssssssssssssssssssssssssssssssssssssssssssssssssssssssssssssssssssssssssssssssssssssssssssssssssssssssssssssssssssc" />
  </g>
</svg>
